<svg width="19" height="27" viewBox="0 0 19 27" fill="none" xmlns="http://www.w3.org/2000/svg">
<path d="M16.006 26.6453C17.6671 23.9455 18.4702 21.1186 18.4154 18.1646C18.3605 15.2105 17.4461 12.5981 15.6721 10.3272C14.3516 8.63684 12.7014 7.34839 10.7215 6.46185C8.7416 5.57532 6.60531 5.17524 4.31264 5.26162L9.08089 1.53669L7.88043 0L-1.83582e-05 6.15618L5.52207 13.2249L7.23521 11.8866L3.65386 7.30219C5.72561 7.16843 7.66095 7.47804 9.4599 8.23101C11.2588 8.98398 12.7519 10.1203 13.939 11.6399C15.3795 13.4839 16.1656 15.5986 16.2973 17.984C16.4289 20.3694 15.8917 22.693 14.6855 24.955L16.006 26.6453Z" fill="white"/>
</svg>
