<svg width="19" height="28" viewBox="0 0 19 28" fill="none" xmlns="http://www.w3.org/2000/svg">
<path d="M15.8213 27.3743C17.4181 24.6652 18.1901 21.8285 18.1374 18.8643C18.0847 15.9 17.2057 13.2785 15.5003 10.9998C14.2309 9.30362 12.6445 8.01072 10.7412 7.12112C8.83792 6.23153 6.78428 5.83007 4.58032 5.91675L9.16408 2.17896L8.01007 0.636963L0.434519 6.81439L5.74296 13.9076L7.38982 12.5646L3.94702 7.96436C5.93862 7.83014 7.79909 8.14082 9.52842 8.89639C11.2578 9.65195 12.693 10.7922 13.8342 12.317C15.219 14.1674 15.9747 16.2894 16.1013 18.683C16.2278 21.0767 15.7114 23.4083 14.5519 25.6781L15.8213 27.3743Z" fill="#13519A"/>
</svg>
