<svg width="48" height="48" viewBox="0 0 48 48" fill="none" xmlns="http://www.w3.org/2000/svg">
<path d="M23.975 34.65C26.3917 34.65 28.4167 33.8333 30.05 32.2C31.6833 30.5667 32.5 28.5417 32.5 26.125C32.5 23.7083 31.6833 21.6917 30.05 20.075C28.4167 18.4583 26.3917 17.65 23.975 17.65C21.5583 17.65 19.5417 18.4583 17.925 20.075C16.3083 21.6917 15.5 23.7083 15.5 26.125C15.5 28.5417 16.3083 30.5667 17.925 32.2C19.5417 33.8333 21.5583 34.65 23.975 34.65ZM23.975 31.65C22.3917 31.65 21.0833 31.125 20.05 30.075C19.0167 29.025 18.5 27.7083 18.5 26.125C18.5 24.5417 19.0167 23.2333 20.05 22.2C21.0833 21.1667 22.3917 20.65 23.975 20.65C25.5583 20.65 26.875 21.1667 27.925 22.2C28.975 23.2333 29.5 24.5417 29.5 26.125C29.5 27.7083 28.975 29.025 27.925 30.075C26.875 31.125 25.5583 31.65 23.975 31.65ZM7 42C6.2 42 5.5 41.7 4.9 41.1C4.3 40.5 4 39.8 4 39V13.35C4 12.5833 4.3 11.8917 4.9 11.275C5.5 10.6583 6.2 10.35 7 10.35H14.35L17.1 7.05C17.3667 6.68333 17.7 6.41667 18.1 6.25C18.5 6.08333 18.9333 6 19.4 6H28.6C29.0667 6 29.5 6.08333 29.9 6.25C30.3 6.41667 30.6333 6.68333 30.9 7.05L33.65 10.35H41C41.7667 10.35 42.4583 10.6583 43.075 11.275C43.6917 11.8917 44 12.5833 44 13.35V39C44 39.8 43.6917 40.5 43.075 41.1C42.4583 41.7 41.7667 42 41 42H7ZM7 39H41V13.35H32.25L28.6 9H19.4L15.75 13.35H7V39Z" fill="#13519A"/>
</svg>
