<svg width="29" height="23" viewBox="0 0 29 23" fill="none" xmlns="http://www.w3.org/2000/svg">
<path d="M9.875 22.2918C9.30972 22.2918 8.79583 22.1441 8.33333 21.8486C7.87083 21.5531 7.47257 21.1741 7.13854 20.7116L0.625 11.5002L7.13854 2.2887C7.47257 1.8262 7.87083 1.44721 8.33333 1.15173C8.79583 0.856239 9.30972 0.708496 9.875 0.708496H26.0625C26.6984 0.708496 27.2428 0.934928 27.6957 1.38779C28.1486 1.84066 28.375 2.38506 28.375 3.021V19.9793C28.375 20.6153 28.1486 21.1597 27.6957 21.6125C27.2428 22.0654 26.6984 22.2918 26.0625 22.2918H9.875ZM9.45104 19.9793H26.0625V3.021H9.45104L3.51562 11.5002L9.45104 19.9793ZM13.2667 17.4356L17.5833 13.1189L21.9 17.4356L23.5573 15.7783L19.2021 11.5002L23.4802 7.22204L21.8229 5.56475L17.5833 9.88141L13.2667 5.56475L11.6094 7.22204L15.9646 11.5002L11.6094 15.7783L13.2667 17.4356Z" fill="#4A4A4A"/>
</svg>
