<svg width="32" height="33" viewBox="0 0 32 33" fill="none" xmlns="http://www.w3.org/2000/svg">
<path d="M12 26.125C11.5111 26.125 11.0667 25.9932 10.6667 25.7297C10.2667 25.4661 9.92222 25.1281 9.63333 24.7156L4 16.5L9.63333 8.28438C9.92222 7.87188 10.2667 7.53385 10.6667 7.27031C11.0667 7.00677 11.5111 6.875 12 6.875H26C26.55 6.875 27.0208 7.07695 27.4125 7.48086C27.8042 7.88477 28 8.37031 28 8.9375V24.0625C28 24.6297 27.8042 25.1152 27.4125 25.5191C27.0208 25.923 26.55 26.125 26 26.125H12ZM11.6333 24.0625H26V8.9375H11.6333L6.5 16.5L11.6333 24.0625ZM14.9333 21.7938L18.6667 17.9438L22.4 21.7938L23.8333 20.3156L20.0667 16.5L23.7667 12.6844L22.3333 11.2063L18.6667 15.0563L14.9333 11.2063L13.5 12.6844L17.2667 16.5L13.5 20.3156L14.9333 21.7938Z" fill="#13519A"/>
</svg>
