<svg width="166" height="122" viewBox="0 0 166 122" fill="none" xmlns="http://www.w3.org/2000/svg">
<g clip-path="url(#clip0_917_677)">
<path d="M162.843 44.0745C162.633 41.8277 161.603 37.4264 161.579 34.1023C161.521 26.7859 157.98 19.3888 151.66 15.8055C136.016 6.93933 117.055 6.5303 99.0066 6.34595C88.4257 6.24225 77.8506 6.13279 67.2697 6.02909C60.0656 5.95996 52.7853 5.89083 45.7392 7.38292C39.2139 8.76555 33.0573 11.4444 27.0002 14.1924C20.4046 17.1881 13.6804 20.4258 8.81125 25.7374C3.94215 31.049 1.30863 38.9645 4.20551 45.5263C5.67443 48.8619 8.4133 51.558 9.72421 54.9512C11.515 59.5715 10.4382 64.7103 10.4031 69.6532C10.368 74.5961 13.458 80.7892 18.1749 82.4944C18.0871 91.3605 29.4815 95.9808 38.4121 94.7825C47.3368 93.5843 55.8695 89.108 64.8469 89.8396C71.7818 90.41 78.4768 94.0855 85.3474 92.9967C89.643 92.3169 93.4353 89.8339 97.6606 88.7969C103.648 87.3279 109.816 88.866 115.99 89.7936C118.208 101.131 139.288 96.0672 144.889 87.8175C146.328 85.7033 146.931 82.915 145.954 80.5587C145.948 80.5414 145.936 80.5184 145.924 80.5011C151.367 76.5779 156.447 72.1074 159.982 66.4847C164.166 59.8365 165.898 51.2873 162.843 44.0688V44.0745Z" fill="#13519A"/>
<path d="M143.121 111.04C140.031 111.334 136.877 110.971 133.933 109.986C133.436 109.819 132.909 109.611 132.605 109.179C132.084 108.436 132.464 107.416 132.932 106.639C134.495 104.012 137.058 101.794 140.119 101.367C143.18 100.941 146.621 102.767 147.294 105.74C147.967 108.713 144.906 112.054 141.951 111.173L143.121 111.034V111.04Z" fill="#13519A"/>
<path d="M146.088 120.367C145.521 118.581 146.908 116.68 148.611 115.856C149.289 115.528 150.039 115.309 150.793 115.361C152.409 115.476 153.784 117.008 153.69 118.604C153.597 120.2 152.063 121.571 150.448 121.513C150.448 121.513 146.656 122.159 146.088 120.373V120.367Z" fill="#13519A"/>
<path d="M160.727 38.9384C160.516 36.6916 159.486 32.2903 159.463 28.9662C159.405 21.6497 155.864 14.2527 149.543 10.6693C133.894 1.80322 114.933 1.39419 96.8846 1.20984C86.3036 1.10614 75.7286 0.996684 65.1476 0.892986C57.9435 0.823855 50.6632 0.754723 43.6171 2.24681C37.0918 3.62945 30.9352 6.3083 24.8781 9.05628C18.2826 12.052 11.5583 15.2896 6.68918 20.6013C1.82008 25.9129 -0.813443 33.8284 2.08344 40.3902C3.55236 43.7258 6.29123 46.4219 7.60214 49.8151C9.39294 54.4354 8.31612 59.5742 8.281 64.5171C8.24589 69.46 11.3359 75.6531 16.0528 77.3583C15.9651 86.2244 27.3594 90.8447 36.29 89.6464C45.2148 88.4482 53.7474 83.9719 62.7248 84.7035C69.6598 85.2739 76.3548 88.9494 83.2253 87.8605C87.5209 87.1807 91.3132 84.6978 95.5386 83.6608C101.525 82.1918 107.694 83.7299 113.868 84.6574C116.086 95.995 137.166 90.9311 142.766 82.6814C144.206 80.5672 144.809 77.7789 143.832 75.4226C143.826 75.4053 143.814 75.3823 143.802 75.365C149.245 71.4418 154.325 66.9713 157.859 61.3486C162.044 54.7004 163.776 46.1511 160.721 38.9327L160.727 38.9384Z" fill="white"/>
<path d="M160.727 38.9384C160.516 36.6916 159.486 32.2903 159.463 28.9662C159.405 21.6498 155.864 14.2527 149.543 10.6693C133.894 1.80322 114.933 1.39419 96.8846 1.20984C86.3036 1.10614 75.7286 0.996684 65.1476 0.892986C57.9435 0.823855 50.6632 0.754723 43.6171 2.24681C37.0918 3.62945 30.9352 6.3083 24.8781 9.05628C18.2826 12.052 11.5583 15.2896 6.68918 20.6013C1.82008 25.9129 -0.813443 33.8284 2.08344 40.3902C3.55236 43.7258 6.29123 46.4219 7.60214 49.8151C9.39294 54.4354 8.31612 59.5742 8.281 64.5171C8.24589 69.46 11.3359 75.6531 16.0528 77.3583C15.9651 86.2244 27.3594 90.8447 36.29 89.6464C45.2148 88.4482 53.7474 83.9719 62.7248 84.7035C69.6598 85.2739 76.3548 88.9494 83.2253 87.8605C87.5209 87.1807 91.3132 84.6978 95.5385 83.6608C101.525 82.1918 107.694 83.7299 113.868 84.6574C116.086 95.995 137.166 90.9311 142.766 82.6814C144.206 80.5672 144.809 77.7789 143.832 75.4226C143.826 75.4053 143.814 75.3823 143.802 75.365C149.245 71.4418 154.325 66.9713 157.859 61.3486C162.044 54.7004 163.776 46.1511 160.721 38.9327L160.727 38.9384Z" stroke="#13519A" stroke-width="3" stroke-linecap="round" stroke-linejoin="round"/>
<path d="M140.999 105.904C137.909 106.198 134.755 105.835 131.811 104.85C131.314 104.683 130.787 104.475 130.483 104.043C129.962 103.3 130.342 102.28 130.81 101.503C132.373 98.8756 134.936 96.6576 137.997 96.2313C141.058 95.805 144.499 97.6312 145.172 100.604C145.845 103.577 142.784 106.918 139.829 106.036L140.999 105.898V105.904Z" fill="white" stroke="#13519A" stroke-width="3" stroke-linecap="round" stroke-linejoin="round"/>
<path d="M143.966 115.231C143.398 113.445 144.785 111.544 146.488 110.72C147.167 110.392 147.916 110.173 148.671 110.225C150.287 110.34 151.662 111.872 151.568 113.468C151.475 115.064 149.941 116.435 148.326 116.377C148.326 116.377 144.534 117.023 143.966 115.237V115.231Z" fill="white" stroke="#13519A" stroke-width="3" stroke-linecap="round" stroke-linejoin="round"/>
<path d="M41.76 31.02C41.445 30.69 40.86 30.24 40.35 30.03C39.465 29.67 39.915 28.605 40.77 28.785C41.715 28.98 42.405 29.52 42.795 30.015C43.5 30.825 42.51 31.815 41.76 31.02ZM37.86 39.195C36.81 39.36 36.555 38.025 37.575 37.8C38.64 37.56 40.02 37.08 40.425 36.075C40.8 35.265 40.425 34.44 38.94 34.335C38.235 34.29 37.215 34.485 36.195 34.92C36.21 35.415 36.21 35.865 36.24 36.6C36.27 37.32 36.24 37.86 35.97 38.205C35.625 38.655 34.905 38.745 34.08 38.535C33.27 38.31 32.55 37.695 32.565 36.825C32.595 35.985 33.405 35.16 34.125 34.575C34.38 34.395 34.665 34.2 34.95 34.035L34.92 32.13C34.47 32.16 33.825 32.16 33.585 32.115C32.67 31.95 32.805 30.69 33.705 30.765C34.095 30.795 34.485 30.795 34.905 30.78C34.905 30.27 34.875 29.76 34.95 29.415C35.145 28.59 36.42 28.71 36.405 29.55C36.39 30.015 36.315 30.3 36.315 30.555C36.69 30.465 36.96 30.27 37.08 30.21C37.95 29.805 38.535 30.9 37.74 31.44C37.395 31.68 36.945 31.845 36.24 31.98C36.225 32.49 36.195 32.835 36.195 33.54C37.08 33.195 38.085 32.97 39.03 32.985C41.64 33.105 42.51 34.92 41.7 36.645C41.025 38.13 39.27 38.985 37.86 39.195ZM34.41 37.365C34.845 37.5 34.905 37.17 34.905 36.6C34.905 36.285 34.92 35.88 34.905 35.55C34.605 35.745 34.065 36.18 33.975 36.675C33.93 36.9 34.065 37.26 34.41 37.365ZM56.65 29.34H49.27C47.875 31.5 47.38 31.575 47.14 31.575C46.75 31.575 46.405 31.29 46.405 30.945C46.405 30.78 46.48 30.615 46.66 30.45C47.74 29.505 48.415 28.14 48.925 27C49.045 26.745 49.27 26.64 49.51 26.64C49.9 26.64 50.305 26.925 50.305 27.315C50.305 27.42 50.29 27.57 50.005 28.08L56.665 28.065C57.1 28.065 57.325 28.38 57.325 28.695C57.325 29.025 57.1 29.34 56.65 29.34ZM55.42 31.14H49.405C49.015 31.14 48.82 30.87 48.82 30.6C48.82 30.315 49.015 30.045 49.405 30.045H55.42C55.81 30.045 55.99 30.315 55.99 30.585C55.99 30.87 55.81 31.14 55.42 31.14ZM54.175 33.09C54.175 33.09 54.175 33.09 47.485 33.09C47.095 33.09 46.885 32.79 46.885 32.49C46.885 32.19 47.095 31.89 47.485 31.89C54.655 31.89 54.655 31.89 54.655 31.89C55.48 31.905 56.29 32.415 56.29 33.33C56.29 33.705 56.26 34.245 56.26 34.86C56.26 37.455 57.115 38.175 57.25 38.175C57.43 38.175 57.595 37.83 57.7 36.99C57.745 36.615 58.03 36.45 58.315 36.45C58.675 36.45 59.05 36.69 59.05 37.14C59.05 37.965 58.45 39.75 57.22 39.75C56.905 39.75 54.835 39.645 54.835 33.93C54.835 33.525 54.835 33.09 54.175 33.09ZM50.755 37.275C48.73 39.3 47.05 39.855 46.795 39.855C46.375 39.855 46.105 39.51 46.105 39.165C46.105 38.925 46.24 38.685 46.555 38.55C47.74 38.04 48.745 37.38 49.63 36.525C49.165 36.255 48.685 36.015 48.25 35.805C47.98 35.67 47.86 35.46 47.86 35.235C47.86 34.905 48.145 34.56 48.535 34.56C48.85 34.56 49.99 35.19 50.545 35.52C50.965 35.01 51.355 34.44 51.745 33.81C51.895 33.57 52.105 33.465 52.33 33.465C52.705 33.465 53.08 33.78 53.08 34.185C53.08 34.305 53.05 34.65 51.7 36.24C53.305 37.32 53.425 37.77 53.425 38.025C53.425 38.46 53.065 38.835 52.675 38.835C52.495 38.835 52.3 38.745 52.135 38.55C51.76 38.1 51.28 37.665 50.755 37.275ZM62.48 38.025C61.175 37.725 61.175 35.37 61.235 34.02C61.34 32.625 61.67 31.365 61.91 30.855C62.33 29.895 63.665 30.3 63.335 31.23C62.975 32.19 62.48 34.485 62.765 36.165C62.84 36.6 63.11 36.555 63.32 36.345C63.95 35.715 64.745 36.57 64.175 37.245C63.725 37.8 63.065 38.19 62.48 38.025ZM70.22 31.98C69.68 31.8 69.08 31.62 68.165 31.83C67.25 32.055 66.92 30.855 67.775 30.495C68.51 30.165 69.935 30.15 70.67 30.54C71.525 30.945 71.12 32.28 70.22 31.98ZM68.225 37.86C67.34 37.56 66.665 36.825 66.395 36C66.095 35.13 67.265 34.665 67.685 35.475C68.015 36.09 68.495 36.48 68.99 36.57C69.875 36.75 70.745 36.285 71.015 36.21C71.885 36.03 72.29 37.155 71.525 37.575C70.625 38.07 69.32 38.235 68.225 37.86ZM81.78 29.61L81.765 29.67C82.2 32.67 84.21 36.33 87.21 37.965C87.525 38.145 87.66 38.4 87.66 38.655C87.66 39.12 87.225 39.6 86.67 39.6C86.505 39.6 86.31 39.555 86.13 39.435C83.805 37.965 82.065 35.355 81.105 32.745C80.22 35.535 78.525 38.13 75.6 39.69C75.435 39.78 75.27 39.81 75.12 39.81C74.625 39.81 74.265 39.405 74.265 38.985C74.265 38.715 74.415 38.43 74.775 38.25C78.42 36.375 80.01 32.82 80.325 29.625C80.28 29.055 80.235 28.845 79.83 28.845C79.815 28.845 79.8 28.845 79.785 28.845L77.655 28.95C77.64 28.95 77.625 28.95 77.61 28.95C77.16 28.95 76.92 28.59 76.92 28.215C76.92 27.855 77.145 27.48 77.625 27.48C78.225 27.465 78.9 27.45 79.575 27.45C79.74 27.45 79.89 27.45 80.055 27.45C80.955 27.465 81.66 27.96 81.69 28.77C81.705 29.04 81.72 29.325 81.765 29.61H81.78ZM96.94 38.625C96.52 39.645 95.14 39.15 95.5 38.145C95.77 37.365 96.505 35.835 97.075 33.45C97.555 31.53 97.33 30.225 97.195 29.34C97.045 28.35 98.44 28.185 98.635 29.145C98.875 30.3 98.83 31.935 98.485 33.645C98.14 35.31 97.615 37.095 96.94 38.625ZM92.305 34.245C91.45 33.36 91.75 31.53 92.065 30.525C92.365 29.52 93.79 29.88 93.535 30.93C93.415 31.515 92.92 33.15 93.49 33.33C93.835 33.45 94.39 32.94 94.54 32.835C95.32 32.28 96.13 33.24 95.44 33.945C94.675 34.74 93.16 35.1 92.305 34.245ZM111.365 38.1C110.39 38.685 109.565 37.455 110.555 36.885C111.5 36.33 112.565 35.595 113.285 34.32C114.215 32.625 113.255 31.47 111.41 31.305C111.26 32.775 110.54 34.095 109.7 34.965C108.815 35.925 107.33 36.765 106.085 36.225C104.675 35.595 104.36 33.51 105.815 32.055C107.12 30.765 108.905 29.985 110.735 29.97C114.365 29.925 116.135 32.355 114.605 35.04C113.63 36.735 112.205 37.59 111.365 38.1ZM106.76 34.86C107.285 35.085 108.14 34.575 108.68 34.035C109.43 33.24 109.835 32.235 109.91 31.335C109.025 31.485 108.14 31.86 107.51 32.34C106.145 33.36 106.1 34.59 106.76 34.86Z" fill="#13519A"/>
<path d="M52.3 60.995C52.195 61.94 50.71 61.955 50.74 60.875C50.755 60.635 51.055 57.65 50.815 57.23C50.455 56.6 49.63 57.125 49.165 57.455C48.64 57.875 47.53 58.76 46.885 59.18C45.985 59.795 45.265 58.67 46 57.98C46.315 57.68 48.745 56.12 49.975 55.205L51.895 53.78C52.75 53.135 53.5 52.505 53.83 52.325C54.745 51.83 55.6 52.985 54.76 53.615C54.175 54.02 52.465 55.085 51.43 55.85C52.405 56 52.39 57.125 52.375 58.085C52.39 58.835 52.345 60.515 52.3 60.995ZM70.07 53.585C69.77 53.165 69.44 52.91 69.17 52.73C68.57 52.325 69.11 51.545 69.755 51.83C70.175 52.01 70.64 52.355 70.925 52.745C71.48 53.51 70.535 54.2 70.07 53.585ZM68.57 54.68C68.3 54.32 67.97 54.035 67.715 53.825C67.145 53.375 67.715 52.655 68.345 52.925C68.69 53.075 69.155 53.48 69.455 53.9C70.01 54.68 69.035 55.34 68.57 54.68ZM69.23 60.035C68.465 59.54 66.815 57.92 64.295 56.21C63.995 56 63.65 56.03 63.335 56.255C62.03 57.17 61.97 57.305 61.31 57.71C60.41 58.25 59.615 57.08 60.485 56.435C60.755 56.255 61.85 55.58 62.555 55.085C63.245 54.635 64.265 54.515 65.06 55.1C65.63 55.52 69.575 58.22 70.19 58.76C70.97 59.405 70.115 60.56 69.23 60.035ZM77.205 55.865C76.935 55.67 76.65 55.325 75.525 54.86C74.7 54.47 75.165 53.33 76.08 53.51C76.59 53.63 77.61 54.005 78.255 54.65C78.915 55.385 78.015 56.435 77.205 55.865ZM77.31 60.83C76.425 61.685 75.345 60.455 76.215 59.585C76.98 58.82 78.735 57.5 79.68 56.795C81.135 55.685 82.62 54.56 83.385 54.17C84.36 53.675 85.11 54.905 84.225 55.49C83.43 56 82.875 56.27 80.61 57.98C78.99 59.255 77.535 60.62 77.31 60.83ZM91.3629 61.175C91.3629 60.635 91.3779 58.49 91.3779 56.255C91.3779 54.77 91.3629 53.18 91.3629 52.13C91.3629 50.99 92.8929 50.99 92.8929 52.16C92.8929 52.64 92.8029 54.56 92.8029 55.205C94.1379 55.31 95.1879 55.295 95.8029 55.34C96.8979 55.475 96.8079 56.93 95.7129 56.87C95.3079 56.84 94.5579 56.735 92.7729 56.6C92.7729 57.905 92.8929 60.11 92.8929 61.115C92.8929 62.315 91.3629 62.375 91.3629 61.175ZM113.453 57.26H102.068C101.513 57.26 101.228 56.855 101.228 56.45C101.228 56.045 101.513 55.64 102.068 55.64H113.453C113.993 55.64 114.248 56.045 114.248 56.435C114.248 56.855 113.978 57.26 113.453 57.26ZM127.968 52.37L124.053 52.355C123.468 53.15 123.243 53.42 122.868 53.42C122.523 53.42 122.178 53.18 122.178 52.865C122.178 52.745 122.238 52.625 122.343 52.505C123.003 51.8 123.483 51.065 123.858 50.15C123.948 49.91 124.173 49.82 124.398 49.82C124.758 49.82 125.163 50.075 125.163 50.435C125.163 50.495 125.148 50.57 125.118 50.645C125.028 50.84 124.923 51.035 124.803 51.23L127.968 51.215C128.373 51.215 128.568 51.5 128.568 51.785C128.568 52.085 128.373 52.37 127.968 52.37ZM127.713 54.89H123.483C123.063 54.89 122.853 54.59 122.853 54.305C122.853 54.02 123.063 53.735 123.483 53.735H127.713C128.118 53.735 128.313 54.02 128.313 54.305C128.313 54.605 128.118 54.89 127.713 54.89ZM121.953 54.335H121.968C122.283 54.335 122.448 54.575 122.448 54.8C122.448 55.04 122.283 55.265 121.953 55.28C121.593 55.295 120.783 55.31 119.958 55.31C118.938 55.31 117.903 55.295 117.603 55.28C116.883 55.235 116.373 54.905 116.343 54.155C116.313 53.6 116.298 53.105 116.298 52.625C116.298 52.145 116.313 51.665 116.343 51.14C116.373 50.51 116.913 50.09 117.588 50.09C118.113 50.09 119.553 50.09 120.648 50.09C121.203 50.09 121.668 50.09 121.893 50.09C122.223 50.09 122.388 50.33 122.388 50.555C122.388 50.795 122.223 51.02 121.878 51.035H120.153V51.575C120.513 51.575 120.798 51.59 120.978 51.59C121.923 51.635 121.953 52.055 121.953 52.775C121.953 53.495 121.758 53.75 120.153 53.75V54.365C120.933 54.365 121.668 54.35 121.953 54.335ZM122.433 61.595V60.695C122.043 60.695 121.668 60.68 121.293 60.68C121.473 60.8 121.593 60.98 121.593 61.19C121.593 61.985 119.133 63.245 116.568 63.26C116.058 63.26 115.803 62.93 115.803 62.6C115.803 62.285 116.028 61.985 116.508 61.985H116.523C116.538 61.985 116.568 61.985 116.583 61.985C118.068 61.985 119.598 61.445 120.243 60.83C120.318 60.755 120.393 60.71 120.468 60.665C120.168 60.665 119.898 60.65 119.613 60.65C118.593 60.635 118.053 60.14 118.008 59.48C117.993 59.06 117.978 58.58 117.978 58.13C117.978 57.665 117.993 57.2 118.008 56.825C118.038 56.285 118.458 55.715 119.568 55.7C120.318 55.685 121.113 55.685 121.908 55.685C122.898 55.685 123.903 55.685 124.938 55.715C125.793 55.73 126.393 56.24 126.438 56.75C126.483 57.155 126.498 57.635 126.498 58.115C126.498 58.58 126.483 59.06 126.438 59.48C126.393 60.095 125.793 60.65 124.863 60.665C124.533 60.665 124.203 60.68 123.858 60.68C123.843 60.875 123.843 61.07 123.843 61.28C123.873 61.79 124.338 61.85 125.313 61.85C126.783 61.85 127.248 61.565 127.248 60.785C127.248 60.335 127.593 60.125 127.953 60.125C128.298 60.125 128.748 60.32 128.748 60.86C128.748 62.75 127.173 62.99 125.313 62.99C123.903 62.99 122.433 62.99 122.433 61.595ZM118.998 51.575V51.035H117.978C117.738 51.05 117.588 51.095 117.573 51.365L117.558 51.575H118.998ZM120.843 52.73V52.535C120.828 52.385 120.753 52.325 120.543 52.31C120.543 52.31 120.543 52.31 117.543 52.31V52.97C118.338 52.97 119.943 52.97 120.483 52.955C120.753 52.94 120.828 52.895 120.843 52.73ZM125.103 57.17V57.125C125.088 56.81 124.953 56.66 124.473 56.645C123.633 56.63 122.628 56.615 121.653 56.615C121.053 56.615 120.453 56.615 119.928 56.63C119.478 56.645 119.313 56.87 119.298 57.125V57.17H125.103ZM118.998 54.365V53.765C118.473 53.765 117.948 53.765 117.558 53.75L117.573 54.035C117.588 54.365 117.723 54.365 118.998 54.365ZM125.133 58.46V57.89H119.268V58.46H125.133ZM125.103 59.255L125.118 59.18H119.298V59.255C119.313 59.765 119.433 59.78 122.553 59.78C124.803 59.78 125.058 59.78 125.103 59.255Z" fill="#13519A"/>
</g>
<defs>
<clipPath id="clip0_917_677">
<rect width="166" height="122" fill="white"/>
</clipPath>
</defs>
</svg>
