<svg width="89" height="77" viewBox="0 0 89 77" fill="none" xmlns="http://www.w3.org/2000/svg">
<g clip-path="url(#clip0_712_729)">
<path fill-rule="evenodd" clip-rule="evenodd" d="M49.8878 4.81256C51.729 3.9434 53.0657 3.14844 54.508 2.67411C56.8696 1.89505 59.3105 1.37302 61.6907 0.660206C65.6399 -0.524287 66.0256 -0.378544 67.7321 3.37898C67.9989 3.9699 68.2446 4.57407 68.4401 5.0325C68.9446 5.23654 69.3013 5.53067 69.5364 5.45648C75.739 3.49292 75.2582 4.49457 76.9806 9.35179C79.0278 15.1179 80.494 21.1225 81.8148 27.1086C83.4288 34.4249 84.5119 41.8498 86.0652 49.1767C86.5698 51.5457 87.8272 53.7531 89.0027 56.6838C87.9144 57.5106 86.6781 58.9177 85.1274 59.5536C77.6146 62.646 70.0304 65.4602 61.976 67.021C54.6559 68.4387 47.542 70.9004 40.2404 72.4161C31.6788 74.1968 23.0142 75.4529 14.0194 77.0004C12.7223 74.0988 11.5732 71.7669 10.6222 69.3582C5.26755 55.7988 3.5901 41.3358 0.425398 27.2358C0.00801688 25.3729 -0.520314 23.5313 1.12808 21.5995C1.8968 20.6959 1.25752 18.5839 1.25752 16.3501C2.83723 16.1249 4.88187 15.2822 6.53555 15.7645C8.12846 16.2282 9.32249 18.0725 11.346 19.9009V14.0288C15.5172 12.0308 16.1406 12.2322 19.2313 16.5038C24.1765 16.003 24.2135 16.0109 25.2728 11.6492C25.7404 9.74132 26.023 7.78571 26.3823 5.9149C31.4965 4.41508 36.4496 3.12194 41.2839 1.48432C44.5965 0.36342 47.0533 0.837748 48.8417 3.9699C49.0662 4.36473 49.5945 4.58467 49.8851 4.81256H49.8878ZM4.84489 36.2665C5.67437 36.5766 5.84343 36.7064 5.97816 36.6773C11.906 35.2834 17.8339 33.8976 23.7406 32.4269C24.2531 32.2997 24.6415 31.5948 25.0403 31.1178C32.9151 21.6313 44.0708 19.4001 54.9095 25.0867C56.019 25.6697 57.3874 26.3083 58.5365 26.1573C62.7975 25.5902 67.0453 24.8138 71.2482 23.8916C73.446 23.4067 75.5382 22.4581 78.0795 21.581C76.7217 17.5187 75.5646 13.9096 74.3046 10.3402C73.594 8.33954 72.2335 7.59757 70.0066 8.0613C65.9437 8.90926 61.7752 9.28819 57.744 10.2421C45.1486 13.2206 32.5876 16.3422 20.0291 19.4902C14.2756 20.9291 8.56698 22.5561 2.33532 24.2255C3.26518 28.6959 4.09466 32.6707 4.84225 36.2639L4.84489 36.2665ZM25.6955 43.5219C25.7272 48.4215 27.0559 54.4367 33.1766 57.7994C36.4681 59.604 40.1717 60.8971 43.8489 61.6947C51.235 63.3006 59.4003 58.3691 61.3684 51.1429C62.0869 48.4851 61.8729 45.5226 61.791 42.7057C61.5322 33.3278 57.7414 28.4282 48.736 25.5558C37.0969 21.8433 25.8091 29.883 25.6955 43.5192V43.5219ZM83.2069 50.4752C75.9662 52.6719 69.3198 54.6593 62.6971 56.7236C61.9654 56.9515 61.3552 57.5795 60.7027 58.0406C58.1429 59.8292 55.7496 61.9438 52.9943 63.3429C49.9644 64.8799 46.6147 66.3108 43.1013 64.7156C37.4746 62.1611 32.1358 64.0929 26.731 65.5185C22.4621 66.642 18.1694 67.7126 13.7975 68.8308C15.7681 72.8825 15.7787 73.0892 19.3687 72.8825C24.1501 72.6016 29.0187 72.4347 33.6627 71.3827C46.4272 68.489 59.1203 65.2535 71.7924 61.965C76.3968 60.7673 80.8559 59.0184 84.607 55.8385C84.1315 54.0207 83.7221 52.452 83.2043 50.4752H83.2069ZM60.251 28.7701C64.895 36.8601 65.7271 44.7541 63.4738 53.6762C70.4689 51.5325 76.8538 50.2579 82.6258 46.6699C81.2812 39.5047 79.9841 32.5938 78.5946 25.1848C72.326 26.4117 66.7098 27.5087 60.251 28.7727V28.7701ZM31.6154 61.4668C25.2041 53.0826 23.7697 57.2164 22.433 35.8346C16.838 37.2152 11.3302 38.5772 5.23585 40.085C7.49447 48.1221 9.621 55.4543 11.589 62.8236C12.194 65.0945 13.3774 65.8232 15.57 65.2933C20.8243 64.0187 26.0891 62.7785 31.6154 61.4668ZM27.6027 14.7575C34.7748 12.9636 41.733 11.2279 48.8786 9.44189C44.5225 3.71286 43.8357 3.44787 37.9369 5.38758C36.0508 6.00765 34.2835 7.05435 32.3657 7.51013C28.6436 8.39519 27.3333 10.7138 27.6001 14.7575H27.6027ZM63.9123 6.40248C64.1685 6.30444 64.4274 6.20374 64.6889 6.1057C64.4248 5.17559 64.1606 4.25078 63.8965 3.32598C63.1013 3.92485 62.9296 4.40978 63.0511 4.80461C63.2255 5.37168 63.6111 5.87251 63.9123 6.40248Z" fill="#13519A"/>
<path fill-rule="evenodd" clip-rule="evenodd" d="M65.9886 13.6865C69.9537 13.7687 71.5994 15.0115 72.0829 17.4891C72.5821 20.0277 71.6206 21.6494 69.0397 22.1767C66.6912 22.6537 64.3402 23.4407 61.9864 23.4566C59.4716 23.4725 58.053 21.2069 58.0609 19.132C58.0662 17.7461 59.6142 15.8806 60.9694 15.1042C62.7446 14.0893 65.0085 13.9356 65.9859 13.6865H65.9886ZM61.1834 20.2238C64.6255 20.608 67.46 21.3526 69.2721 17.9078C65.0561 16.0052 63.5239 16.3761 61.1834 20.2238Z" fill="#13519A"/>
<path fill-rule="evenodd" clip-rule="evenodd" d="M58.7557 43.8182C58.2855 52.6344 53.7048 58.5065 45.9833 58.7821C37.8734 59.0709 30.3685 51.2379 30.2734 42.6099C30.1835 34.9809 36.3914 29.4056 43.0193 29.5937C54.846 29.9276 57.7096 34.0323 58.7583 43.8182H58.7557ZM44.076 32.7762C37.9844 32.6411 33.3879 36.91 33.3615 42.7133C33.3324 49.0676 39.5244 55.9123 45.3387 55.9573C51.367 56.0077 56.0004 51.1743 55.6914 44.4277C55.3004 36.0329 52.7538 33.3804 44.076 32.7762Z" fill="#13519A"/>
<path fill-rule="evenodd" clip-rule="evenodd" d="M19.0014 61.7261C16.5605 61.795 14.6955 59.8712 14.6903 57.2637C14.6823 55.051 15.8315 53.8718 18.0267 53.8348C20.5468 53.795 22.2718 55.3054 22.3616 57.6347C22.4514 60.0434 21.1227 61.6625 19.0014 61.7261Z" fill="#13519A"/>
<path fill-rule="evenodd" clip-rule="evenodd" d="M44.9953 52.6318C40.6234 52.7219 36.0031 48.8293 35.9873 45.0426C35.9714 39.6793 39.7701 35.0791 44.1975 35.1056C48.2366 35.1294 53.055 39.4063 53.0708 42.9784C53.0946 48.1456 49.4174 52.5391 44.9927 52.6292L44.9953 52.6318Z" fill="#13519A"/>
</g>
<defs>
<clipPath id="clip0_712_729">
<rect width="89" height="77" fill="white"/>
</clipPath>
</defs>
</svg>
