<svg width="85" height="41" viewBox="0 0 85 41" fill="none" xmlns="http://www.w3.org/2000/svg">
<g clip-path="url(#clip0_712_704)">
<path fill-rule="evenodd" clip-rule="evenodd" d="M0.224673 19.8337C1.02838 19.5478 1.73294 19.3347 2.40752 19.0549C6.22046 17.4877 10.206 16.499 14.1899 15.5177C16.2803 15.0036 18.4001 14.6128 20.5136 14.1813C20.7724 14.1268 21.0557 14.1159 21.3107 14.1644C21.8132 14.2597 21.9509 14.5719 21.7194 15.0386C20.4097 17.6513 19.1835 20.3039 17.5792 22.7612C16.7661 24.003 15.6459 24.9025 14.5601 25.8431C13.848 26.4556 13.0752 27.0052 12.2716 27.4846C11.7741 27.7822 11.6875 28.116 11.7335 28.6365C11.9136 30.6876 11.7275 32.7272 11.3736 34.7433C11.1236 36.1576 10.4495 37.4051 9.63903 38.5689C9.41523 38.8895 9.0986 39.1758 8.76553 39.3781C8.37119 39.6196 7.97113 39.5844 7.56827 39.2401C6.56809 38.3867 6.60984 38.4437 7.27589 37.3107C7.72842 36.5416 8.13542 35.6848 8.30024 34.8186C8.75549 32.4265 8.78062 30.0064 8.14577 27.6304C7.93805 26.8597 7.55821 26.137 7.25441 25.3927C7.16624 25.1849 7.06805 24.9794 6.95131 24.7256C7.68198 24.2213 8.44709 23.8918 9.23217 23.6314C9.77894 23.4523 10.1575 23.739 10.3736 24.307C10.4985 24.6398 10.6427 24.9646 10.8415 25.4452C13.25 23.5958 14.7347 21.2443 16.2415 18.6588C15.8215 18.6881 15.6019 18.6699 15.3964 18.7257C11.565 19.7694 7.73023 20.8138 3.90436 21.8808C3.42475 22.0158 2.96633 22.2549 2.50747 22.4624C1.70781 22.8247 1.22943 22.7272 0.863041 21.9274C0.567065 21.2903 0.437052 20.5645 0.224673 19.8337Z" fill="#13519A"/>
<path fill-rule="evenodd" clip-rule="evenodd" d="M26.9095 19.092C27.8459 18.9189 28.6992 18.7233 29.559 18.6141C30.4839 18.4965 30.7087 18.7599 30.6018 19.6616C30.1528 23.3578 29.6963 27.0523 29.2622 30.752C29.0992 32.1456 28.9976 33.5457 28.8754 34.8734C27.596 35.1772 26.4364 35.4948 25.2613 35.7176C24.5418 35.8533 24.2593 35.5403 24.3543 34.7963C24.4255 34.2339 24.6163 33.6853 24.7049 33.1223C25.1392 30.4044 25.5594 27.6863 25.9871 24.97C26.2891 23.0472 26.5911 21.1243 26.9103 19.0954L26.9095 19.092Z" fill="#13519A"/>
<path fill-rule="evenodd" clip-rule="evenodd" d="M43.7927 30.2573C43.0075 31.1265 41.4672 32.0554 40.4996 32.2007C40.2399 31.7908 39.9063 31.3668 39.6908 30.8901C38.8326 29 38.0162 27.0929 37.1672 25.1971C36.2752 23.2094 35.374 21.2274 34.4561 19.2494C34.2899 18.8912 34.0441 18.5695 33.7821 18.1496C34.5917 17.5174 35.5295 17.0977 36.5099 16.798C36.6846 16.7459 37.0885 17.0054 37.1916 17.2167C38.0421 18.9257 38.8674 20.6477 39.6643 22.3834C40.8469 24.9707 41.7739 27.6856 43.6404 29.9134C43.7192 30.0073 43.7432 30.1529 43.7893 30.2581L43.7927 30.2573Z" fill="#13519A"/>
<path fill-rule="evenodd" clip-rule="evenodd" d="M50.7649 29.8683C50.4406 29.8996 50.1343 30.0216 49.9907 29.922C49.2752 29.4057 48.5845 29.7809 47.8778 29.8959C47.711 29.9214 47.5432 29.9578 47.3767 29.9551C46.7823 29.9484 46.6045 29.7795 46.6488 29.1637C46.7608 27.659 46.9011 26.1547 47.0347 24.6519C47.2286 22.4521 47.4076 20.2488 47.634 18.0518C47.7496 16.9193 47.9742 15.7997 48.1149 14.6683C48.1698 14.2012 48.3958 14.0385 48.8396 14.0351C49.3401 14.0324 49.8442 14.0007 50.3442 13.9664C51.0592 13.9162 51.183 14.0065 51.1558 14.7238C51.0654 16.8991 50.9866 19.0786 50.8572 21.2525C50.6989 23.9295 50.4808 26.6066 50.8138 29.2866C50.8334 29.4438 50.7881 29.6095 50.7657 29.8717L50.7649 29.8683Z" fill="#13519A"/>
<path fill-rule="evenodd" clip-rule="evenodd" d="M53.2594 13.4184C54.0981 12.8638 55.0697 12.7351 55.9878 12.4853C56.1466 12.4406 56.4616 12.6825 56.5909 12.87C56.9106 13.3396 57.1665 13.8524 57.4408 14.3539C59.2411 17.6848 61.0381 21.0166 62.835 24.3484C62.8667 24.4077 62.9018 24.4662 62.9361 24.5214C63.5767 25.6292 63.5866 25.6409 62.521 26.4289C61.942 26.8585 61.4529 27.4885 60.5378 27.4242C58.1367 22.7966 55.7151 18.1422 53.2627 13.4176L53.2594 13.4184Z" fill="#13519A"/>
<path fill-rule="evenodd" clip-rule="evenodd" d="M70.8741 23.8751C69.6223 24.2358 68.5642 25.2929 67.0774 24.7381C67.5039 21.378 67.1414 18.1279 67.2093 14.8776C67.2431 13.3704 67.3618 11.8641 67.4305 10.3557C67.4509 9.92149 67.6248 9.65846 68.0808 9.61704C68.7168 9.56102 69.3525 9.45931 69.9904 9.45564C70.6249 9.45276 70.7245 9.60505 70.7341 10.2398C70.803 14.4676 70.8761 18.6979 70.9417 22.9265C70.9447 23.2214 70.9027 23.5199 70.8741 23.8751Z" fill="#13519A"/>
<path fill-rule="evenodd" clip-rule="evenodd" d="M73.5317 8.70616C73.7821 8.58686 74.0652 8.32256 74.287 8.36491C74.8642 8.47768 75.3415 8.25874 75.8441 8.08661C76.3148 7.92907 76.6536 8.00345 76.9289 8.4941C78.4157 11.1288 80.2189 13.5511 81.9987 15.9931C82.7682 17.0491 83.3832 18.2122 84.0763 19.318C84.2877 19.6585 84.158 19.9145 83.8942 20.0968C83.1006 20.6478 82.2856 21.1686 81.5082 21.684C80.6585 21.0482 74.6385 11.227 73.535 8.70537L73.5317 8.70616Z" fill="#13519A"/>
</g>
<defs>
<clipPath id="clip0_712_704">
<rect width="81.7429" height="22.4134" fill="white" transform="translate(0 18.8877) rotate(-13.3596)"/>
</clipPath>
</defs>
</svg>
