<svg width="119" height="78" viewBox="0 0 119 78" fill="none" xmlns="http://www.w3.org/2000/svg">
<path d="M80.7546 62.0882C81.2468 61.8562 81.5065 61.6584 81.7936 61.6038C84.5825 61.0989 85.9565 59.1614 86.7425 56.6849C87.1458 55.4296 87.4808 54.1265 87.6448 52.8234C87.7884 51.7318 87.2005 51.0974 86.0795 50.92C85.2797 50.7903 84.4458 50.7767 83.6324 50.8108C81.1647 50.9132 78.7381 51.2679 76.3799 52.0116C74.9649 52.455 74.254 53.3283 74.0421 54.8701C73.4474 59.2228 72.4973 63.5413 72.7365 67.9759C72.7775 68.7127 72.634 69.3881 72.053 69.9339C71.4583 70.4933 70.7542 70.6093 70.098 70.1931C68.3959 69.0879 67.6235 67.4642 67.6987 65.4925C67.7807 63.4458 68.0131 61.4128 68.1704 59.3729C68.2045 58.9704 68.2114 58.561 68.2319 58.1244C67.0425 57.7833 65.8873 57.4626 64.7389 57.1147C64.3493 56.9987 63.9323 56.8691 63.6247 56.6235C62.1346 55.4295 61.868 54.297 63.529 53.2396C65.067 52.2572 66.5367 51.1792 68.0815 50.1218C67.3023 48.9756 66.2974 48.4912 65.3063 47.9795C64.8551 47.7476 64.2878 47.5838 64.0212 47.2154C63.6931 46.7583 63.4128 46.0829 63.5017 45.5644C63.6179 44.8822 64.3766 44.7594 65.0055 44.8549C66.7144 45.1073 68.4164 45.4143 70.2552 45.7145C71.0276 43.7087 71.7932 41.7303 72.5451 39.745C72.9826 38.5988 73.3654 37.4254 73.8507 36.2997C74.1925 35.5014 75.129 35.2081 75.9355 35.5219C77.6444 36.1905 78.6082 37.8893 78.1708 39.7381C77.8222 41.2322 77.289 42.6786 76.8378 44.1454C76.5713 45.0186 76.2978 45.8851 76.0244 46.7515C77.0361 47.2291 77.952 47.0449 78.8475 46.8607C82.3883 46.1443 85.7582 47.1745 89.1623 47.8363C89.258 47.8567 89.3537 47.9113 89.4426 47.9522C91.4454 48.962 94.0634 52.9053 92.6895 55.8252C91.6505 58.0425 90.5226 60.2325 89.4426 62.4361C88.4651 64.4282 86.6468 65.3834 84.7329 66.1611C83.3658 66.7137 81.0485 65.7108 80.6042 64.3259C80.3855 63.63 80.6794 62.7772 80.7341 62.0882H80.7546Z" fill="#13519A"/>
<path d="M102.827 59.2569C101.89 60.5259 100.981 61.8699 99.9556 63.1252C98.3971 65.0287 98.0006 67.1027 98.7867 69.5451C99.6207 69.4837 100.482 69.4222 101.507 69.3404C101.712 70.1932 101.917 70.9573 102.088 71.735C102.512 73.6385 100.646 75.7125 98.1032 74.6345C97.1189 74.2184 96.1209 73.4611 95.5057 72.5946C93.0449 69.1221 92.7783 63.5687 95.5467 60.2803C96.1414 59.5776 96.6267 58.7794 97.2693 58.1312C97.7546 57.64 98.3766 57.0738 98.9986 56.9851C99.7506 56.8759 100.605 57.1488 101.357 57.4217C102.136 57.7083 102.758 58.2472 102.827 59.2569Z" fill="#13519A"/>
<path d="M111.515 61.4809C113.292 61.1125 114.597 61.249 115.862 61.6515C117.796 62.2723 118.952 63.5208 118.986 65.6767C119.027 68.7058 118.35 71.5507 116.846 74.1637C116.135 75.3917 115.274 76.5379 114.399 77.8478C113.989 77.8955 113.497 77.9842 113.005 77.9978C112.601 78.0115 112.198 77.9433 111.72 77.9092C110.954 76.8517 110.182 75.7874 109.457 74.7913C109.471 73.8021 109.895 73.154 110.551 72.6082C112.314 71.1277 112.813 69.0333 113.217 66.9252C113.415 65.9018 113.121 64.9262 112.595 63.9984C112.205 63.3161 111.966 62.5452 111.521 61.4877L111.515 61.4809Z" fill="#13519A"/>
<path d="M16.1109 17.6132C16.7192 19.3461 17.2661 20.9834 17.8608 22.6072C19.1322 26.0593 20.4241 29.5046 21.716 32.9498C21.9758 33.6457 22.1535 34.3757 21.5793 34.9761C20.8342 35.747 19.8568 36.2792 18.8109 35.8903C17.0747 35.2353 15.4547 34.3757 14.8258 32.3768C14.2448 30.5279 13.5749 28.6995 12.905 26.878C12.6658 26.2367 12.3172 25.6295 12.0369 25.0496C10.95 25.2406 10.9705 26.1138 10.7176 26.7142C10.4442 27.3555 10.4374 28.1128 10.2255 28.7882C9.788 30.1731 8.63963 30.9577 7.17682 30.8349C6.47276 30.7735 5.7687 30.5688 5.09882 30.3369C4.35374 30.0776 4.01196 29.4159 4.18285 28.6177C4.69552 26.1957 5.60465 23.9239 6.93074 21.8226C7.6348 20.7105 8.48241 19.6735 8.87204 18.3841C8.05861 17.5654 7.26568 18.0635 6.53428 18.2204C4.87324 18.582 3.26005 18.5547 1.74256 17.7428C1.21623 17.4563 0.724068 17.0674 0.307099 16.6376C-0.239744 16.0713 -0.0278423 15.0753 0.717232 14.8706C2.28941 14.4476 3.89576 14.1406 5.48844 13.7927C6.08313 13.663 6.6915 13.588 7.28619 13.4379C7.45708 13.397 7.58695 13.1787 7.90139 12.8785C7.80569 12.4214 7.70999 11.8415 7.55961 11.2752C6.70517 8.0346 5.84389 4.79398 4.94843 1.41692C5.52946 1.04851 6.00111 0.659638 6.53428 0.427677C9.24799 -0.732123 11.7771 0.536835 12.4265 3.38858C12.6726 4.48016 12.8367 5.59902 12.9734 6.71107C13.1716 8.35526 13.7048 9.86982 14.4635 11.282C15.6802 11.3639 16.521 10.7499 17.3618 10.1768C20.2464 8.20516 23.5138 7.42059 26.9247 7.13405C28.702 6.98396 30.3903 7.44788 31.9352 8.33479C32.5572 8.69637 33.104 9.16712 33.7124 9.54917C35.6469 10.7772 36.3441 12.4555 36.0843 14.7683C35.7972 17.3403 35.3051 19.81 34.2319 22.1705C33.6372 23.4668 33.2681 24.8654 32.7691 26.2094C32.441 27.0963 31.7506 27.4306 30.8141 27.2532C29.3923 26.9735 28.4764 26.0183 27.7313 24.8926C27.2733 24.2036 27.5399 23.5145 27.9774 22.8937C29.5154 20.7378 30.028 18.234 30.4382 15.6961C30.5202 15.1913 30.5817 14.6796 30.5817 14.1747C30.5544 11.8961 29.1258 10.5793 26.8222 10.7908C26.0156 10.8659 25.1885 11.0637 24.4502 11.3912C21.9143 12.5169 19.6038 14.0246 17.5327 15.8803C17.0815 16.2828 16.7603 16.8218 16.1314 17.6132H16.1109Z" fill="#13519A"/>
<path d="M52.9271 21.809C54.7932 21.7407 56.2013 19.8782 58.211 21.1336C58.334 21.4337 58.5118 21.9045 58.7305 22.3548C59.1885 23.3235 58.9014 24.1354 58.2725 24.9131C56.1808 27.4852 53.6653 27.7649 51.0268 25.6636C49.1949 24.2104 47.985 22.2934 47.4655 20.0488C46.6863 16.6922 46.9323 13.3424 47.9098 10.0404C48.2106 9.03752 48.8395 8.4849 49.8511 8.32117C50.8628 8.15061 51.683 8.52584 52.3119 9.2763C53.18 10.3133 53.2347 11.5413 52.9066 12.7762C52.2914 15.0889 52.2914 17.4427 52.4008 19.8032C52.4349 20.465 52.7357 21.1131 52.9339 21.8158L52.9271 21.809Z" fill="#13519A"/>
<path d="M66.6802 17.8246C66.7281 17.4221 66.8101 17.0127 66.8101 16.6102C66.8033 14.5362 66.6392 12.5168 64.7458 11.1387C64.3151 10.8249 64.0144 10.2927 64.3425 9.82198C64.6091 9.44675 65.1423 9.01695 65.5456 9.03059C66.858 9.07835 68.1772 9.25573 69.4692 9.51498C69.9271 9.60367 70.4466 9.97208 70.6995 10.361C72.2102 12.6737 73.4474 15.1298 73.2014 17.9952C73.0783 19.4074 72.7434 20.8128 72.3879 22.1841C71.9846 23.7259 71.2054 24.1353 69.6742 23.7942C67.4595 23.2961 66.4137 21.918 66.5504 19.6598C66.5845 19.0526 66.6461 18.4454 66.7008 17.8314C66.6939 17.8314 66.6871 17.8314 66.6802 17.8314V17.8246Z" fill="#13519A"/>
</svg>
