<svg width="69" height="68" viewBox="0 0 69 68" fill="none" xmlns="http://www.w3.org/2000/svg">
<g clip-path="url(#clip0_712_735)">
<path fill-rule="evenodd" clip-rule="evenodd" d="M47.9129 59.7706C45.987 60.9133 44.2729 61.9456 42.5419 62.9461C41.7457 63.4047 40.9009 63.7798 40.0925 64.2212C38.4053 65.1408 35.7952 64.209 34.9431 61.8328C34.6461 61.0016 34.7507 60.2071 35.4885 59.6382C36.5841 58.7971 37.6773 57.9511 38.824 57.1836C43.3039 54.1822 46.8172 50.2514 49.7852 45.7812C50.1674 45.2025 50.5837 44.6483 50.983 44.0819C52.1152 42.4831 53.7635 42.1226 55.5554 42.2526C56.6973 42.336 57.0844 42.9024 57.2257 44.0696C57.5276 46.5463 57.0382 48.7679 55.3388 50.6585C55.1951 50.8154 55.144 51.0557 54.9979 51.3671C55.368 51.5854 55.6723 51.8429 56.0229 51.9581C57.3693 52.4019 57.9829 53.5005 57.7029 55.3298C57.6152 55.8962 57.3815 56.4381 57.2281 56.9948C57.1185 57.3847 56.9043 57.8015 56.9603 58.1694C57.0698 58.8829 57.1404 59.7657 57.586 60.2169C58.1874 60.8299 59.003 60.2512 59.6214 59.8687C60.7706 59.1625 61.7299 58.2527 62.1121 56.882C62.9229 53.9787 65.7228 53.0321 68.1381 55.8766C69.3433 57.2964 69.1461 59.008 68.3791 60.7465C68.0821 61.4233 67.6292 62.0756 67.1058 62.5954C64.1135 65.5454 60.6562 67.5978 56.3857 67.9754C55.9888 68.0097 55.5433 68.0465 55.1927 67.9043C53.3861 67.1785 51.5211 66.5458 49.8412 65.587C48.0297 64.5547 47.2603 62.8456 47.796 60.6975C47.852 60.4793 47.8569 60.2512 47.9153 59.7755L47.9129 59.7706ZM55.3728 43.9985C53.9923 43.8882 53.2571 44.6287 52.607 45.4428C51.9228 46.2986 51.3069 47.2132 50.6909 48.1205C48.86 50.8154 46.7953 53.2896 44.1975 55.2758C42.0914 56.8844 39.983 58.4881 37.8818 60.1041C36.8957 60.8618 36.5987 61.7004 37.0029 62.4606C37.39 63.1889 37.9962 63.2869 39.2574 62.5709C41.2588 61.438 43.2138 60.2193 45.1738 59.008C46.2037 58.3729 47.1873 57.6642 48.2172 57.0267C48.8794 56.6123 49.6074 56.3891 50.3013 56.9531C51.0317 57.5465 51.0902 58.2699 50.7103 59.1306C50.3597 59.9202 50.0992 60.7588 49.8679 61.595C49.5806 62.6396 49.4881 63.7308 50.4669 64.4615C52.3489 65.8666 54.3551 66.9504 56.8434 66.4208C59.6701 65.82 62.1195 64.4836 64.3083 62.6175C65.8616 61.2909 66.8014 59.6137 67.2178 57.6225C67.3906 56.7962 66.967 56.2861 66.3145 55.9306C65.679 55.5873 65.1775 55.9502 64.8074 56.4063C64.486 56.8035 64.2133 57.2719 64.0502 57.7525C63.4951 59.4003 62.2582 60.4229 60.868 61.2615C59.4778 62.1001 57.9731 62.1761 56.6389 61.1977C55.2487 60.1777 54.9516 58.6377 55.1659 56.9923C55.217 56.5975 55.4021 56.2199 55.5214 55.8325C55.6577 55.3911 55.8427 54.9571 55.9206 54.5034C56.0959 53.476 55.6845 53.0934 54.6546 53.3485C54.1579 53.4711 53.6929 53.7236 53.2108 53.9051C52.2929 54.2509 51.5041 54.0375 51.1218 53.3313C50.6933 52.5344 51.2241 52.0709 51.7037 51.5339C52.7336 50.3789 53.7903 49.2264 54.6716 47.9636C55.4459 46.8479 55.5603 45.5066 55.3728 44.0034V43.9985Z" fill="#13519A"/>
<path fill-rule="evenodd" clip-rule="evenodd" d="M33.1779 34.1852C34.0544 33.4055 34.3563 32.6061 34.1591 31.6105C34.0349 30.9852 33.8962 30.3624 33.8036 29.7346C33.5797 28.1898 34.2955 26.9956 35.7344 26.4684C38.0668 25.615 39.8661 26.2649 41.1492 28.4252C41.2928 28.6704 41.4292 28.923 41.4414 28.9475C42.9071 29.3129 44.2169 29.5017 45.4148 29.9725C47.4843 30.7866 49.3372 33.4815 48.6774 36.2107C48.2586 37.9468 48.1052 39.7761 47.46 41.419C46.8635 42.9442 45.8847 44.364 44.8695 45.6637C44.0222 46.745 42.6198 47.0982 41.3075 47.1938C40.2289 47.2723 39.7176 47.7014 39.2769 48.6528C38.3736 50.6022 36.6498 51.6763 34.7215 52.38C33.4847 52.8312 32.2917 52.4879 31.403 51.5316C31.0621 51.1613 30.8795 50.514 30.8674 49.9868C30.8406 48.6332 31.61 47.591 32.4548 46.6175C33.0148 45.9726 33.5821 45.3326 34.1153 44.7269C32.8078 42.3631 33.3094 41.4877 36.4429 40.6098C36.4429 40.1292 36.438 39.6143 36.4331 39.0208C34.7581 40.2273 33.1171 41.2327 31.6903 42.4832C30.0931 43.8883 27.0668 42.5495 26.3169 40.7864C26.1489 40.394 26.2609 39.7491 26.4776 39.3494C27.2445 37.937 27.4734 36.5515 26.7795 35.0386C26.5725 34.5898 26.4313 33.994 26.5336 33.5281C27.057 31.1323 28.2549 30.3526 30.6994 31.4756C32.2454 32.1843 32.3672 32.4761 33.1731 34.1803L33.1779 34.1852ZM37.9281 45.98C38.5124 45.9751 38.9653 45.9579 39.4157 45.9751C41.3367 46.0388 42.9436 45.3522 44.0076 43.7461C44.7307 42.6524 45.4343 41.4632 45.7654 40.2126C46.267 38.3318 46.5567 36.3676 46.7028 34.4206C46.8051 33.0524 46.1404 31.8312 45.0301 30.9656C43.9832 30.149 42.9728 30.6983 41.9502 31.1176C40.6087 31.6718 39.8125 31.1691 39.5325 29.6733C39.4376 29.1633 39.3816 28.6189 39.1454 28.1751C38.9896 27.8833 38.5489 27.5596 38.2373 27.562C36.9055 27.5669 35.396 28.8126 35.7198 30.2275C35.9024 31.0146 36.0972 31.8165 36.1239 32.6183C36.1532 33.5845 36.1799 34.6511 35.1793 35.2274C34.4854 35.6271 33.7379 35.9557 32.9758 36.1984C31.347 36.7109 30.4194 35.9336 30.6677 34.249C30.8114 33.2706 30.4632 32.714 29.6232 32.3829C28.3036 33.4226 28.0942 34.0504 28.7881 35.681C29.3311 36.961 29.2361 38.1479 28.6834 39.3592C28.5398 39.6731 28.2841 39.9943 28.289 40.3058C28.2963 40.7226 28.4059 41.2376 28.6737 41.5073C28.8685 41.7059 29.4918 41.728 29.7474 41.5563C30.6507 40.9605 31.4834 40.2543 32.3306 39.575C32.6252 39.3396 32.8858 39.0552 33.1731 38.805C33.5821 38.447 34.0885 38.165 34.3953 37.7359C35.0234 36.8581 35.7806 36.3063 36.869 36.5466C37.9962 36.7943 38.4077 37.7384 38.5002 38.7487C38.6074 39.9281 38.5367 41.1223 38.544 42.2895C37.7503 42.8339 36.5865 41.7917 35.9145 42.9173C37.6237 43.9226 37.5896 44.4106 36.0898 45.6195C35.1573 46.3699 34.3028 47.2624 33.587 48.2237C32.9734 49.055 32.803 50.0873 33.2461 51.3011C35.8805 50.4993 37.351 48.7828 37.9281 45.9824V45.98Z" fill="#13519A"/>
<path fill-rule="evenodd" clip-rule="evenodd" d="M20.0377 12.7316C20.0523 13.7468 20.5052 14.0925 21.2429 14.0361C22.1559 13.965 23.0713 13.8645 23.9649 13.6756C25.0897 13.4353 26.1756 13.0062 27.3053 12.8199C28.0747 12.6923 28.9001 12.761 29.6792 12.8787C30.7383 13.0381 31.2569 13.8326 31.3397 14.8306C31.4541 16.1523 31.1303 17.3318 30.0176 18.2268C28.3596 19.5608 26.4727 20.3503 24.4372 20.8457C23.8992 20.9781 23.3635 21.1228 22.6209 21.3165C23.2856 22.1919 23.8285 22.8515 24.3106 23.5504C25.4769 25.2448 25.0605 26.2404 23.142 26.922C20.3664 27.9078 15.4068 26.4145 13.9582 23.4425C13.4664 22.4322 12.7627 22.2213 11.7791 22.1159C9.38335 21.8584 6.98758 21.5372 4.60886 21.1473C2.78282 20.8481 1.54111 19.6221 0.56235 18.1361C0.25801 17.6775 0.058363 17.0817 0.0121033 16.5324C-0.0706772 15.5196 0.384616 14.8355 1.36337 14.578C2.23744 14.3475 3.17481 14.1906 4.07078 14.2421C6.36429 14.3794 8.64563 14.6589 10.9343 14.8674C11.2654 14.8968 11.5989 14.8674 11.9349 14.8674C11.8448 12.7904 11.6062 12.4667 9.79968 12.6237C7.21644 12.8468 4.7452 12.5182 2.41517 11.3829C1.7091 11.0396 1.02495 10.5369 0.508786 9.94841C-0.243542 9.09507 -0.141284 8.12893 0.65 7.29766C1.7651 6.1329 3.13098 5.70623 4.72816 5.89014C6.83176 6.1329 8.94266 6.31926 11.1558 6.53995C11.2995 5.81902 11.3944 5.07848 11.6062 4.37717C11.8887 3.44046 12.1954 2.49884 12.6142 1.62098C13.2132 0.370393 14.243 -0.124938 15.587 0.0270945C16.8847 0.17177 17.6906 0.914765 18.0193 2.15309C18.2847 3.14865 18.4746 4.16629 18.7205 5.28446C19.1928 5.15204 19.58 5.09565 19.9257 4.93871C22.1023 3.95295 24.3983 3.98238 26.704 4.12705C28.1672 4.21778 29.3359 4.89457 30.2416 6.04217C31.1741 7.22409 31.123 8.04065 30.0054 9.03867C28.1064 10.7331 25.9005 11.79 23.3903 12.1921C22.2801 12.3711 21.1674 12.5501 20.0401 12.734L20.0377 12.7316ZM29.3651 14.0263C28.7637 14.1146 28.3157 14.1612 27.8775 14.247C25.6302 14.6859 23.3806 15.1249 21.1357 15.5834C20.4832 15.7183 19.7869 15.8115 19.4144 15.1813C18.7254 14.0116 18.1556 12.7733 17.4496 11.3829C19.4947 11.1107 21.238 10.8434 22.9886 10.6522C25.2261 10.4094 26.8987 9.07055 28.6079 7.80525C29.1655 7.39329 29.2361 6.75329 28.6444 6.34378C28.1064 5.97106 27.4441 5.64002 26.8086 5.57872C24.2936 5.33841 21.9027 5.79205 19.6725 7.06716C18.4235 7.78073 17.7758 7.5208 17.3425 6.16968C17.0089 5.12998 16.7995 4.04859 16.5293 2.98927C16.4075 2.51601 16.276 2.0452 16.1616 1.62098C15.0538 1.56948 14.5328 2.14819 14.2601 2.85195C13.8657 3.86222 13.5224 4.92154 13.3617 5.99067C13.1255 7.56249 12.4462 8.13383 10.8515 7.91314C8.91831 7.64586 6.98271 7.3418 5.0398 7.24862C4.24365 7.20938 3.30385 7.49383 2.64647 7.94992C1.40476 8.80817 1.5265 9.56097 2.89481 10.2059C4.69894 11.0519 6.60046 11.3903 8.5945 11.15C9.44908 11.047 10.3231 10.89 11.1656 10.9808C11.7231 11.0396 12.4949 11.3559 12.7262 11.7949C13.4347 13.1411 13.929 14.5976 14.5936 16.2357C13.61 16.3068 12.8212 16.449 12.0469 16.4C10.7322 16.3166 9.4223 16.1057 8.10999 15.9635C6.73924 15.8164 5.36849 15.6619 3.99531 15.5613C3.15046 15.5 2.36161 15.7011 2.00127 16.5912C1.66284 17.425 2.07188 18.087 2.6903 18.5652C3.26976 19.009 3.90522 19.5411 4.58208 19.6637C6.89019 20.088 9.22996 20.3602 11.56 20.6593C13.2716 20.88 14.9296 20.9683 15.6041 23.1286C15.8524 23.928 16.8555 24.5852 17.6517 25.0952C18.7716 25.8161 20.0961 25.6224 21.3549 25.5121C22.8766 25.3797 23.2564 24.5557 22.3141 23.3125C21.7274 22.5376 20.9556 21.9025 20.3079 21.1694C20.0426 20.8677 19.8794 20.4729 19.5727 19.9605C20.2568 19.8942 20.6512 19.8452 21.0432 19.8231C23.3343 19.6858 25.4355 18.9379 27.3711 17.7413C28.6323 16.9615 29.6427 15.961 29.3554 14.0238L29.3651 14.0263Z" fill="#13519A"/>
<path fill-rule="evenodd" clip-rule="evenodd" d="M13.5784 42.1693C12.0689 41.956 10.4474 41.8677 8.89889 41.4803C6.54939 40.8869 4.91326 38.5181 4.7623 35.8649C4.62839 33.4471 4.48474 31.0269 4.33136 28.6091C4.26562 27.6062 4.80369 26.9514 5.57306 26.4904C6.3887 26.0025 7.28224 26.0883 8.00779 26.6547C9.45401 27.7852 10.5715 28.9671 10.0237 31.1814C9.41018 33.6678 11.2898 35.2004 13.7172 34.4402C14.153 34.3029 14.5718 34.1018 14.9906 33.9081C16.651 33.1406 18.0461 33.8346 19.2805 34.8375C20.1473 35.5412 20.3689 36.5687 19.9623 37.6795C19.132 39.96 16.13 42.1105 13.5784 42.1743V42.1693ZM14.1068 36.1812C10.9684 36.0464 7.35772 34.3446 8.09544 29.8082C8.16604 29.3692 8.17335 28.8739 8.03213 28.4668C7.95179 28.2314 7.50136 27.9764 7.24328 27.9985C7.03877 28.0181 6.74903 28.435 6.71008 28.7023C6.32052 31.456 6.26453 34.2294 6.6906 36.9757C6.88051 38.2018 7.08016 39.6682 8.48743 40.0924C9.8387 40.4994 11.319 40.8133 12.7068 40.7054C15.178 40.5117 16.9481 39.0404 18.0072 36.782C18.4698 35.7938 18.0121 35.1563 16.9554 35.2764C16.5098 35.3279 16.0862 35.556 15.6479 35.6957C15.0514 35.887 14.4501 36.0734 14.1043 36.1812H14.1068Z" fill="#13519A"/>
<path fill-rule="evenodd" clip-rule="evenodd" d="M45.2128 38.3488C45.2128 39.4351 44.6747 40.7494 43.1968 41.5586C42.4518 41.9681 41.736 42.2231 40.9593 41.6616C40.1972 41.1148 39.7809 40.4012 39.9367 39.4473C40.1072 38.4027 40.689 37.4709 40.4115 36.2792C40.319 35.8746 41.1833 35.0286 41.7822 34.7294C42.5735 34.3346 43.4865 34.5921 44.1658 35.2198C44.9133 35.9089 45.3126 36.7843 45.2152 38.3488H45.2128ZM41.8821 40.3497C43.6667 39.1482 43.9443 38.1624 43.1019 36.468C42.4031 37.3606 41.9015 38.8907 41.8821 40.3497Z" fill="#13519A"/>
</g>
<defs>
<clipPath id="clip0_712_735">
<rect width="69" height="68" fill="white"/>
</clipPath>
</defs>
</svg>
