<svg width="113" height="72" viewBox="0 0 113 72" fill="none" xmlns="http://www.w3.org/2000/svg">
<path d="M14.9137 6.22587C14.236 5.61698 13.6649 5.67347 13.144 5.90573C11.2426 6.74688 9.22823 7.31811 7.64057 8.83092C6.84988 9.58419 5.75797 10.0801 4.72254 10.5069C3.37962 11.0656 2.0367 10.8396 0.813005 10.0236C0.0787908 9.53398 -0.159672 9.04435 0.103892 8.16554C0.285877 7.56292 0.561992 6.95403 0.932237 6.44557C2.37556 4.43685 4.27072 2.91148 6.54866 2.00128C8.48774 1.22918 10.521 0.66423 12.5479 0.155773C14.2485 -0.264803 15.9052 0.2311 17.4929 0.871379C17.7815 0.990646 18.0576 1.1978 18.2773 1.42378C20.1536 3.41366 21.1639 5.67975 20.3858 8.46684C20.1661 9.23895 19.9089 10.0048 19.6265 10.9275C20.185 11.1033 20.6744 11.3544 21.189 11.3983C23.8121 11.6243 25.8328 13.1371 27.8911 14.5369C28.2676 14.7943 28.6128 15.24 28.7571 15.6668C29.1211 16.7277 29.6043 17.8262 29.6043 18.9122C29.6043 23.4883 28.8073 27.9075 26.2281 31.8182C25.2429 33.3185 23.8937 34.5362 22.2684 35.2518C20.3356 36.1056 18.3086 35.8168 16.3758 35.051C13.6461 33.9776 12.2278 31.8433 11.6756 29.0562C11.6003 28.6733 11.6254 28.2464 11.707 27.8635C12.4977 24.3671 16.7084 21.9441 20.1912 22.9798C20.8815 23.187 21.5906 23.3879 22.2433 23.6892C22.8708 23.9842 23.4356 24.4048 24.0192 24.7688C24.4961 24.2227 23.8247 23.8461 23.9 23.4067C23.9753 22.9422 24.2953 22.4902 24.2828 22.0382C24.2451 20.7514 24.1824 19.452 23.9564 18.1903C23.6992 16.7591 21.6722 15.5413 20.2101 15.8426C19.0303 16.0874 17.8443 16.3448 16.6959 16.7089C15.3153 17.1546 13.9912 17.6881 13.0436 18.931C12.3659 19.8161 11.5187 20.5819 10.7155 21.3603C9.88087 22.1701 9.02115 22.2517 8.07985 21.6616C7.56527 21.3415 7.20757 20.8832 7.20757 20.2932C7.20757 18.5795 7.40838 16.9976 8.83916 15.6982C10.5021 14.1917 12.0019 12.4906 13.4766 10.7894C14.6376 9.45237 14.6878 7.73241 14.92 6.21959L14.9137 6.22587ZM16.8716 27.7819C16.3005 28.7549 15.5914 29.7404 16.0997 31.0461C17.085 31.6801 18.1204 31.4102 19.137 31.2972C20.2226 31.1654 21.0572 30.5627 21.7789 29.7844C22.2433 29.2822 22.4441 28.7047 22.1429 28.033C21.8291 27.3237 21.2518 26.9659 20.4234 27.0098C20.1097 27.0287 19.7896 27.0852 19.4821 27.1542C18.635 27.3488 17.7941 27.5622 16.8716 27.7882V27.7819Z" fill="#13519A"/>
<path d="M40.881 20.3749C41.1697 20.1301 41.4834 19.9292 41.7219 19.6593C42.6318 18.6361 43.5104 17.5815 44.4203 16.5583C44.7906 16.1377 45.1922 15.7297 45.6189 15.3656C47.8529 13.4448 49.3715 13.4762 51.8189 15.5289C51.7687 15.9369 51.7687 16.4202 51.6495 16.8785C51.1914 18.6424 51.342 20.4 51.6997 22.1513C52.026 23.7207 52.6222 24.1663 54.2036 24.0785C54.6052 24.0534 55.0068 24.022 55.4084 23.9717C56.2995 23.865 56.9082 23.3691 57.1781 22.5343C57.3977 21.85 57.655 21.1282 57.6362 20.4314C57.6048 19.1822 58.1005 18.0649 58.2825 16.8785C58.4457 15.7925 59.1234 15.3845 60.0522 15.1962C61.8344 14.8384 63.1459 16.2758 62.7317 18.046C62.5372 18.8997 62.4368 19.7848 62.3929 20.6574C62.1732 24.7501 59.4372 28.3658 55.6469 29.4518C53.1368 30.1737 50.7082 29.5459 49.0264 27.2485C47.9533 25.7796 47.3572 24.135 47.081 22.3585C47.0246 21.9881 46.9367 21.6241 46.8175 21.0403C45.8448 21.7559 45.4244 22.6096 44.9349 23.4194C43.7928 25.3025 42.293 26.8718 40.4668 28.0833C38.9545 29.0877 38.0759 28.8617 36.9527 27.4305C36.4004 26.7212 36.0239 25.9616 35.8294 25.0577C35.0701 21.5362 35.7039 18.1716 36.8774 14.8572C37.4421 13.2628 38.0634 11.6872 38.5278 10.0614C39.3498 7.19267 41.1069 4.8952 42.9268 2.64167C43.5857 1.81935 44.5019 1.27323 45.5373 0.965644C46.2715 0.74594 46.9744 0.81499 47.6647 1.10374C48.6436 1.51804 49.1205 2.37175 48.9888 3.43888C48.9636 3.67741 48.9448 3.94734 48.8319 4.14193C47.8529 5.79285 47.2819 7.65719 45.9515 9.13234C43.1527 12.2459 41.2387 15.8239 40.6614 20.0296C40.6551 20.0924 40.743 20.1615 40.881 20.3686V20.3749Z" fill="#13519A"/>
<path d="M47.4701 53.3429C49.0013 53.9455 50.5576 54.5732 52.1264 55.1633C53.5572 55.7031 54.5989 56.6949 55.3269 57.988C56.1929 59.526 56.4753 61.1392 55.8038 62.8655C55.2767 64.2151 54.806 65.5898 54.3981 66.9833C53.4443 70.2161 48.3612 73.1162 44.4203 71.572C42.293 70.7371 41.4144 69.0234 40.7242 67.1089C40.4292 66.2928 40.7367 65.4768 41.3078 64.8616C42.8892 63.1668 44.7718 62.2629 47.1564 62.8466C48.1667 63.0914 49.1833 63.33 50.2689 63.5936C50.476 63.2798 50.6894 63.0475 50.8024 62.7713C51.7311 60.4864 51.5679 60.1035 49.3025 58.7099C48.3863 58.145 47.3258 58.0445 46.2778 57.9504C45.5122 57.8813 44.8533 58.1073 44.2509 58.5718C43.7426 58.9673 43.2155 59.3377 42.6507 59.7582C41.2576 59.4318 40.0778 58.8606 39.6134 57.3666C39.3059 56.3811 39.4001 55.5148 40.1468 54.6862C42.0545 52.5708 43.4414 50.1038 44.6588 47.549C45.1734 46.4756 45.7131 45.3833 45.7884 44.1844C45.2236 43.6634 44.6588 43.7952 44.1693 44.084C41.8349 45.4775 39.4252 46.7832 37.6179 48.9111C37.1472 49.4635 36.5762 49.9657 35.7729 49.9218C33.8589 49.8276 32.6164 49.3757 32.9114 46.7769C33.0557 45.4963 33.5263 44.4417 34.6622 43.7764C37.1033 42.3514 39.6385 41.1713 42.4624 40.6628C44.0564 40.3741 45.4934 40.7821 46.9305 41.3282C47.3007 41.4663 47.6019 41.799 47.9785 41.9246C49.039 42.2698 49.8799 42.8599 50.1936 43.9647C50.5513 45.239 50.476 46.463 49.8171 47.6996C48.9511 49.3317 48.2797 51.0642 47.5329 52.7528C47.4701 52.8909 47.4953 53.0667 47.4701 53.3554V53.3429ZM45.5311 67.5734C46.8112 67.5483 47.7525 67.2909 48.5181 66.318C46.7673 65.866 46.6606 65.9099 45.5311 67.5734Z" fill="#13519A"/>
<path d="M68.7624 58.0823C67.0869 59.9466 66.2711 61.7607 65.8381 63.7318C65.5682 64.9433 65.0913 66.023 64.3383 66.9834C64.1563 67.2157 63.7923 67.5107 63.5664 67.473C62.5498 67.3036 61.5018 67.1466 60.5605 66.7512C59.7949 66.431 59.5439 65.5961 59.3933 64.755C58.8913 62.037 58.8536 59.3126 59.1548 56.5757C59.2992 55.2952 59.5439 54.0209 59.638 52.7403C59.82 50.2671 60.7676 48.0387 61.916 45.917C62.4368 44.9566 63.2338 44.0652 64.0935 43.3873C65.1917 42.5273 66.566 42.2197 67.9466 42.6905C69.1263 43.0922 69.4276 43.8329 68.9067 44.9628C68.2666 46.3501 67.5073 47.6872 66.8609 49.0744C66.0514 50.8258 65.2984 52.596 64.5516 54.3787C64.4387 54.6486 64.5077 54.9939 64.4826 55.5526C64.903 55.3391 65.1792 55.2638 65.3674 55.0943C65.7816 54.7177 66.1393 54.272 66.5535 53.8954C68.7059 51.9369 70.2308 52.3763 72.5025 53.5627C72.9794 53.8138 73.0171 54.3285 72.9794 54.837C72.8727 56.1991 72.7472 57.5613 72.6907 58.9234C72.6468 59.978 72.766 61.0138 73.3747 62.1123C73.7701 62.0432 74.316 62.1123 74.6235 61.8675C75.8849 60.8757 77.0897 59.8085 78.2821 58.7351C78.8092 58.2643 78.9535 57.6492 78.6586 56.9775C78.2883 56.1363 78.1754 55.2764 78.395 54.385C78.5707 53.6757 79.0414 53.2425 79.7254 53.1798C81.2628 53.0479 82.2606 53.9958 83.2333 54.9688C83.3337 55.0692 83.3965 55.2638 83.3965 55.4145C83.3839 56.9335 83.5282 58.4778 82.7124 59.8713C81.6896 61.6227 80.4847 63.2422 78.9347 64.5478C78.3323 65.05 77.6043 65.4518 76.8764 65.7531C73.8831 67.0085 71.7683 65.8033 70.3249 63.0413C69.7727 61.9867 69.5217 60.7689 69.1514 59.6202C69.0322 59.2561 68.9569 58.8795 68.7561 58.0823H68.7624Z" fill="#13519A"/>
<path d="M108.435 59.6139C106.433 59.639 105.737 59.0113 105.793 57.2223C105.818 56.5255 106.082 55.9982 106.703 55.6279C107.255 55.3015 107.782 54.9248 108.291 54.5294C109.063 53.933 109.709 53.23 109.897 52.2507C109.086 51.4138 107.634 50.673 105.542 50.0286C105.304 50.355 104.952 50.6877 104.777 51.102C103.772 53.3932 102.837 55.7158 102.555 58.2329C102.436 59.3315 102.003 60.2605 101.287 61.0452C100.315 62.1123 99.2981 63.1355 98.0556 63.9139C95.9283 65.2446 93.7884 64.5039 92.4204 62.8656C90.9582 61.1079 90.0797 59.0113 90.5754 56.5946C90.6382 56.2807 90.726 55.9669 90.839 55.6656C91.8179 53.073 93.575 52.2068 96.1918 53.1107C97.1645 53.4497 98.0807 53.9581 99.1789 54.4603C99.3923 54.0586 99.5993 53.7384 99.7311 53.3932C100.704 50.92 101.651 48.4404 102.624 45.9672C102.875 45.3269 103.584 45.0633 104.218 45.3646C104.431 45.465 104.664 45.578 104.82 45.7475C106.063 47.0594 107.707 47.7562 109.213 48.6727C110.035 49.1749 110.864 49.6771 111.604 50.286C113.073 51.4912 113.38 52.8973 112.495 54.567C112.006 55.4835 111.347 56.3121 110.694 57.1282C110.042 57.9379 109.307 58.6724 108.435 59.6265V59.6139Z" fill="#13519A"/>
</svg>
