<svg width="133" height="34" viewBox="0 0 133 34" fill="none" xmlns="http://www.w3.org/2000/svg">
<g clip-path="url(#clip0_964_632)">
<path d="M30.3967 29.3366C26.9763 32.014 22.2106 33.3705 17.7615 33.3705C7.86077 33.3705 0.62429 26.5173 0.62429 16.9955C0.62429 7.47372 7.86077 0.629395 17.8934 0.629395C23.3801 0.629395 27.926 2.49119 30.9331 6.02861L26.4839 10.2044C24.1451 7.75743 21.4457 6.57829 18.2099 6.57829C11.9582 6.57829 7.64095 10.8427 7.64095 17.0044C7.64095 23.166 11.9582 27.4304 18.122 27.4304C20.1883 27.4304 22.1227 27.0226 24.0132 25.9765V16.5433H30.3967V29.3277V29.3366Z" stroke="#114D91" stroke-width="1.42"/>
<path d="M35.2943 16.9955C35.2943 7.56238 42.5748 0.629395 52.4755 0.629395C62.3762 0.629395 69.6127 7.51805 69.6127 16.9955C69.6127 26.4729 62.3234 33.3616 52.4755 33.3616C42.6275 33.3616 35.2943 26.4198 35.2943 16.9955ZM62.596 16.9955C62.596 10.8693 58.2348 6.56942 52.4755 6.56942C46.7162 6.56942 42.311 10.8782 42.311 16.9955C42.311 23.1128 46.6722 27.4216 52.4755 27.4216C58.2787 27.4216 62.596 23.1128 62.596 16.9955Z" stroke="#114D91" stroke-width="1.42"/>
<path d="M78.1417 32.8652H71.0371L85.0704 1.12598H91.9552L106.032 32.8652H98.796L88.4996 8.05896L78.1593 32.8652H78.1417Z" stroke="#114D91" stroke-width="1.42"/>
<path d="M109.532 32.8652V1.12598H116.461V27.1114H132.385V32.8741H109.541L109.532 32.8652Z" stroke="#114D91" stroke-width="1.42"/>
</g>
<defs>
<clipPath id="clip0_964_632">
<rect width="133" height="34" fill="white"/>
</clipPath>
</defs>
</svg>
