<svg width="22" height="21" viewBox="0 0 22 21" fill="none" xmlns="http://www.w3.org/2000/svg">
<path d="M11 20.7229L12.1104 19.7208C14.0201 17.9673 15.5989 16.4546 16.8468 15.1827C18.0948 13.9109 19.0889 12.774 19.8291 11.7719C20.5694 10.7698 21.0885 9.86252 21.3864 9.05002C21.6844 8.23752 21.8333 7.41599 21.8333 6.58543C21.8333 4.95763 21.2871 3.59826 20.1948 2.50731C19.1024 1.41633 17.7528 0.87085 16.1458 0.87085C15.1166 0.87085 14.1642 1.1146 13.2885 1.6021C12.4128 2.0896 11.65 2.79377 11 3.7146C10.2416 2.7396 9.43818 2.02189 8.58956 1.56147C7.74095 1.10106 6.82915 0.87085 5.85415 0.87085C4.2472 0.87085 2.89755 1.41633 1.80519 2.50731C0.712828 3.59826 0.166647 4.95763 0.166647 6.58543C0.166647 7.41599 0.315605 8.23752 0.613523 9.05002C0.91144 9.86252 1.43054 10.7698 2.17081 11.7719C2.91109 12.774 3.9052 13.9109 5.15312 15.1827C6.40105 16.4546 7.97986 17.9673 9.88956 19.7208L11 20.7229ZM11 18.5833C9.17211 16.9043 7.66792 15.4644 6.48741 14.2636C5.3069 13.0629 4.36908 12.0111 3.67394 11.1083C2.9788 10.2056 2.4913 9.40088 2.21144 8.69428C1.93158 7.98765 1.79165 7.28602 1.79165 6.58936C1.79165 5.39508 2.17081 4.41425 2.92915 3.64689C3.68748 2.87953 4.66045 2.49585 5.84805 2.49585C6.77835 2.49585 7.63937 2.78022 8.43113 3.34897C9.22286 3.91772 9.86248 4.71668 10.35 5.74585H11.6771C12.1465 4.73474 12.7771 3.94029 13.5688 3.36252C14.3606 2.78474 15.2216 2.49585 16.1519 2.49585C17.3395 2.49585 18.3125 2.87953 19.0708 3.64689C19.8291 4.41425 20.2083 5.39662 20.2083 6.59399C20.2083 7.29245 20.0684 7.99828 19.7885 8.71147C19.5087 9.42467 19.0212 10.2372 18.326 11.149C17.6309 12.0608 16.6875 13.1125 15.4958 14.3042C14.3041 15.4958 12.8055 16.9222 11 18.5833Z" fill="white"/>
</svg>
