<svg width="28" height="27" viewBox="0 0 28 27" fill="none" xmlns="http://www.w3.org/2000/svg">
<path d="M14 23.5968L15.1959 22.5562C17.2525 20.7352 18.9527 19.1643 20.2966 17.8435C21.6406 16.5228 22.7111 15.3421 23.5084 14.3015C24.3056 13.2609 24.8646 12.3187 25.1854 11.475C25.5063 10.6312 25.6667 9.77808 25.6667 8.91558C25.6667 7.22517 25.0785 5.81351 23.9021 4.6806C22.7257 3.54767 21.2722 2.9812 19.5417 2.9812C18.4334 2.9812 17.4077 3.23433 16.4646 3.74058C15.5215 4.24683 14.7 4.97808 14 5.93433C13.1834 4.92183 12.3181 4.17651 11.4042 3.69839C10.4903 3.22026 9.50835 2.9812 8.45835 2.9812C6.7278 2.9812 5.27433 3.54767 4.09794 4.6806C2.92155 5.81351 2.33335 7.22517 2.33335 8.91558C2.33335 9.77808 2.49377 10.6312 2.81461 11.475C3.13544 12.3187 3.69447 13.2609 4.49169 14.3015C5.28891 15.3421 6.35948 16.5228 7.70341 17.8435C9.04733 19.1643 10.7476 20.7352 12.8042 22.5562L14 23.5968ZM14 21.375C12.0315 19.6313 10.4116 18.136 9.14033 16.8891C7.86901 15.6422 6.85905 14.55 6.11044 13.6125C5.36183 12.675 4.83683 11.8393 4.53544 11.1055C4.23405 10.3717 4.08335 9.64311 4.08335 8.91965C4.08335 7.67944 4.49169 6.66089 5.30836 5.86401C6.12502 5.06714 7.17283 4.6687 8.45179 4.6687C9.45365 4.6687 10.3809 4.96401 11.2336 5.55464C12.0862 6.14526 12.775 6.97495 13.3 8.0437H14.7292C15.2347 6.9937 15.9138 6.1687 16.7665 5.5687C17.6191 4.9687 18.5464 4.6687 19.5483 4.6687C20.8272 4.6687 21.875 5.06714 22.6917 5.86401C23.5084 6.66089 23.9167 7.68104 23.9167 8.92446C23.9167 9.64979 23.766 10.3828 23.4646 11.1234C23.1632 11.864 22.6382 12.7078 21.8896 13.6546C21.141 14.6015 20.125 15.6937 18.8417 16.9312C17.5584 18.1687 15.9445 19.65 14 21.375Z" fill="#F78CB9"/>
</svg>
