<svg width="277" height="113" viewBox="0 0 277 113" fill="none" xmlns="http://www.w3.org/2000/svg">
<g clip-path="url(#clip0_839_650)">
<path d="M237.05 0.5H38.98C17.81 0.5 0.5 17.81 0.5 38.98V57.84C0.5 79 17.81 96.32 38.98 96.32H108.18C108.37 97.01 115.57 102.42 109.62 111.88C109.62 111.88 121.66 106.37 123.33 96.32H237.06C258.22 96.32 275.54 79.01 275.54 57.84V38.98C275.54 17.82 258.23 0.5 237.06 0.5H237.05Z" fill="white" stroke="#13519A" stroke-linecap="round" stroke-linejoin="round"/>
<path d="M74.665 43.925H80.005V45.5H74.665V43.925ZM76.18 47.12H78.73V48.68H75.685L76.18 47.12ZM75.25 51.245L76.015 49.895C76.615 50.3 77.365 50.9 77.71 51.305L76.915 52.82C76.585 52.37 75.85 51.71 75.25 51.245ZM79.9 45.005H81.49V53.795H79.9V45.005ZM82.42 43.55H84.085V55.31C84.085 56.27 83.905 56.735 83.365 57.02C82.81 57.305 81.97 57.365 80.785 57.365C80.71 56.885 80.47 56.105 80.23 55.61C81.055 55.64 81.82 55.64 82.09 55.64C82.33 55.625 82.42 55.55 82.42 55.31V43.55ZM75.775 44.48L77.485 44.72C77.05 47.465 76.27 50.735 74.605 52.685C74.365 52.325 73.87 51.725 73.54 51.425C74.935 49.745 75.535 46.775 75.775 44.48ZM78.055 47.12H78.37L78.655 47.06L79.69 47.375C79.15 52.265 77.575 55.67 75.265 57.35C75.025 56.945 74.485 56.24 74.14 55.97C76.3 54.5 77.635 51.59 78.055 47.465V47.12ZM73.135 43.28L74.8 43.775C73.945 46.4 72.565 49.235 71.035 51.02C70.885 50.585 70.45 49.55 70.165 49.085C71.38 47.66 72.49 45.47 73.135 43.28ZM71.95 47.405L73.555 45.8L73.6 45.83V57.335H71.95V47.405ZM89.54 50.3C89.54 53.51 88.205 55.91 86.585 57.515L85.16 56.87C86.675 55.265 87.845 53.18 87.845 50.3C87.845 47.435 86.675 45.35 85.16 43.745L86.585 43.1C88.205 44.705 89.54 47.105 89.54 50.3ZM110.685 44.045C111.06 44.585 111.6 45.545 111.885 46.1L110.67 46.61C110.37 45.995 109.905 45.11 109.5 44.525L110.685 44.045ZM112.47 43.37C112.86 43.925 113.415 44.885 113.67 45.41L112.485 45.92C112.17 45.29 111.69 44.42 111.27 43.85L112.47 43.37ZM101.88 51.335C102.54 49.67 103.11 47.555 103.305 45.635L105.48 46.1C105.36 46.52 105.18 47.255 105.12 47.6C104.91 48.65 104.37 50.705 103.845 52.1C103.305 53.555 102.42 55.265 101.64 56.39L99.54 55.505C100.47 54.275 101.355 52.67 101.88 51.335ZM109.275 51.035C108.705 49.46 107.745 47.24 107.1 46.1L109.095 45.455C109.725 46.61 110.745 48.92 111.315 50.36C111.855 51.725 112.65 54.11 113.055 55.595L110.835 56.315C110.43 54.545 109.875 52.655 109.275 51.035ZM125.995 45.845C125.875 46.01 125.605 46.46 125.47 46.775C124.855 48.2 123.745 50.24 122.455 51.74C120.775 53.675 118.51 55.535 116.185 56.63L114.625 55.01C117.055 54.11 119.365 52.28 120.775 50.72C121.765 49.595 122.68 48.11 123.025 47.045C122.395 47.045 118.57 47.045 117.925 47.045C117.31 47.045 116.485 47.12 116.155 47.15V45.005C116.56 45.065 117.49 45.11 117.925 45.11C118.72 45.11 122.56 45.11 123.22 45.11C123.88 45.11 124.465 45.035 124.78 44.93L125.995 45.845ZM122.65 50.495C124.195 51.755 126.325 53.99 127.3 55.19L125.59 56.675C124.48 55.13 122.845 53.345 121.24 51.89L122.65 50.495ZM134.72 44.255C134.555 44.645 134.36 45.155 134.225 45.485C133.97 46.235 133.505 47.345 133.115 48.11C132.515 49.295 131.495 50.735 130.505 51.62L128.615 50.48C129.695 49.685 130.655 48.335 131.225 47.39C131.63 46.7 131.915 45.905 132.095 45.335C132.26 44.84 132.38 44.27 132.41 43.805L134.72 44.255ZM132.35 46.58C133.55 46.58 139.25 46.58 140.285 46.58C140.66 46.58 141.35 46.55 141.845 46.475V48.515C141.275 48.47 140.63 48.47 140.285 48.47C139.235 48.47 133.55 48.47 132.2 48.47L132.35 46.58ZM138.215 47.66C138.11 52.085 136.535 55.01 133.64 56.825L131.615 55.475C132.155 55.25 132.68 54.95 133.025 54.65C134.735 53.345 136.07 51.275 136.13 47.66H138.215ZM148.065 44.105C147.975 44.735 147.9 45.515 147.87 46.115C147.795 47.735 147.69 51.08 147.69 52.94C147.69 54.455 148.59 54.95 149.76 54.95C152.235 54.95 153.795 53.525 154.89 51.89L156.255 53.555C155.28 54.995 153.15 56.99 149.73 56.99C147.27 56.99 145.695 55.91 145.695 53.345C145.695 51.335 145.83 47.405 145.83 46.115C145.83 45.395 145.77 44.675 145.65 44.09L148.065 44.105ZM165.535 43.985C165.475 44.42 165.43 45.155 165.4 45.74C165.385 46.46 165.4 47.315 165.4 48.17C165.4 49.835 165.685 53.06 165.685 54.32C165.685 55.655 164.995 56.915 162.49 56.915C160.33 56.915 158.575 56.21 158.575 54.185C158.575 52.61 159.925 51.38 162.67 51.38C165.805 51.38 168.61 52.955 170.14 54.365L168.985 56.165C167.5 54.665 165.115 53.045 162.4 53.045C161.23 53.045 160.525 53.435 160.525 54.095C160.525 54.815 161.275 55.1 162.325 55.1C163.285 55.1 163.645 54.665 163.645 53.675C163.645 52.625 163.465 49.595 163.465 48.17C163.465 47.27 163.45 46.385 163.435 45.74C163.42 44.99 163.375 44.345 163.285 43.985H165.535ZM164.395 46.85C165.28 46.85 167.905 46.79 169.585 46.61L169.66 48.395C167.965 48.545 165.325 48.62 164.395 48.62V46.85ZM181.76 51.095C181.76 50.105 180.995 49.31 179.585 49.31C177.935 49.31 176.435 49.805 175.685 50.03C175.25 50.165 174.65 50.39 174.23 50.57L173.66 48.41C174.17 48.38 174.8 48.26 175.295 48.155C176.39 47.915 178.07 47.48 179.84 47.48C182.21 47.48 183.875 48.83 183.875 51.17C183.875 54.395 180.89 56.375 176.72 56.96L175.655 55.085C179.375 54.665 181.76 53.45 181.76 51.095ZM175.865 43.895C177.62 44.27 181.025 44.57 182.6 44.57L182.315 46.415C180.56 46.295 177.305 45.995 175.58 45.695L175.865 43.895ZM192.72 52.145L192.33 47.015L192.255 44.78H194.73L194.655 47.015L194.265 52.145H192.72ZM193.5 56.15C192.72 56.15 192.165 55.595 192.165 54.815C192.165 54.035 192.735 53.495 193.5 53.495C194.25 53.495 194.82 54.035 194.82 54.815C194.82 55.595 194.25 56.15 193.5 56.15Z" fill="#6093CE"/>
</g>
<defs>
<clipPath id="clip0_839_650">
<rect width="276.03" height="112.37" fill="white"/>
</clipPath>
</defs>
</svg>
