<svg xmlns="http://www.w3.org/2000/svg" width="12" height="14" viewBox="0 0 12 14" fill="none">
<path d="M6.00144 6.83331C6.32268 6.83331 6.59718 6.71893 6.82496 6.49016C7.05274 6.26141 7.16663 5.98641 7.16663 5.66516C7.16663 5.34393 7.05224 5.06942 6.82348 4.84165C6.59472 4.61387 6.31972 4.49998 5.99848 4.49998C5.67724 4.49998 5.40274 4.61436 5.17496 4.84313C4.94718 5.07188 4.83329 5.34688 4.83329 5.66813C4.83329 5.98936 4.94768 6.26387 5.17644 6.49165C5.4052 6.71942 5.6802 6.83331 6.00144 6.83331ZM5.99996 12.35C7.47774 11.0055 8.5694 9.78609 9.27496 8.69165C9.98052 7.5972 10.3333 6.63331 10.3333 5.79998C10.3333 4.4912 9.915 3.41956 9.07843 2.58506C8.24186 1.75056 7.2157 1.33331 5.99996 1.33331C4.78421 1.33331 3.75806 1.75056 2.92149 2.58506C2.08491 3.41956 1.66663 4.4912 1.66663 5.79998C1.66663 6.63331 2.02774 7.5972 2.74996 8.69165C3.47218 9.78609 4.55552 11.0055 5.99996 12.35ZM5.99996 13.6666C4.21107 12.1444 2.87496 10.7305 1.99163 9.42498C1.10829 8.11942 0.666626 6.91109 0.666626 5.79998C0.666626 4.13331 1.20274 2.80554 2.27496 1.81665C3.34718 0.827757 4.58885 0.333313 5.99996 0.333313C7.41107 0.333313 8.65274 0.827757 9.72496 1.81665C10.7972 2.80554 11.3333 4.13331 11.3333 5.79998C11.3333 6.91109 10.8916 8.11942 10.0083 9.42498C9.12496 10.7305 7.78885 12.1444 5.99996 13.6666Z" fill="#4A4A4A"/>
</svg>