<svg width="55" height="22" viewBox="0 0 55 22" fill="none" xmlns="http://www.w3.org/2000/svg">
<path fill-rule="evenodd" clip-rule="evenodd" d="M5.5 1.5C5.5 0.671573 4.82843 0 4 0C3.17157 0 2.5 0.671573 2.5 1.5V13.7908C1.03408 14.3841 0 15.8213 0 17.5C0 19.7091 1.79086 21.5 4 21.5C6.20914 21.5 8 19.7091 8 17.5C8 15.8213 6.96592 14.3841 5.5 13.7908V1.5ZM29.5 1.5C29.5 0.671573 28.8284 0 28 0C27.1716 0 26.5 0.671573 26.5 1.5V13.7908C25.0341 14.3841 24 15.8213 24 17.5C24 19.7091 25.7909 21.5 28 21.5C30.2091 21.5 32 19.7091 32 17.5C32 15.8213 30.9659 14.3841 29.5 13.7908V1.5ZM51 0C51.8284 0 52.5 0.671573 52.5 1.5V13.7908C53.9659 14.3841 55 15.8213 55 17.5C55 19.7091 53.2091 21.5 51 21.5C48.7909 21.5 47 19.7091 47 17.5C47 15.8213 48.0341 14.3841 49.5 13.7908V1.5C49.5 0.671573 50.1716 0 51 0Z" fill="#13519A"/>
</svg>
