<svg width="12" height="14" viewBox="0 0 12 14" fill="none" xmlns="http://www.w3.org/2000/svg">
<path d="M6.0015 6.83337C6.32274 6.83337 6.59724 6.71899 6.82502 6.49022C7.0528 6.26147 7.16669 5.98647 7.16669 5.66522C7.16669 5.34399 7.0523 5.06948 6.82354 4.84171C6.59478 4.61393 6.31978 4.50004 5.99854 4.50004C5.6773 4.50004 5.4028 4.61442 5.17502 4.84319C4.94724 5.07195 4.83335 5.34695 4.83335 5.66819C4.83335 5.98942 4.94774 6.26393 5.1765 6.49171C5.40526 6.71948 5.68026 6.83337 6.0015 6.83337ZM6.00002 12.35C7.4778 11.0056 8.56947 9.78615 9.27502 8.69171C9.98058 7.59726 10.3334 6.63337 10.3334 5.80004C10.3334 4.49126 9.91507 3.41962 9.07849 2.58512C8.24192 1.75062 7.21576 1.33337 6.00002 1.33337C4.78428 1.33337 3.75812 1.75062 2.92155 2.58512C2.08498 3.41962 1.66669 4.49126 1.66669 5.80004C1.66669 6.63337 2.0278 7.59726 2.75002 8.69171C3.47224 9.78615 4.55558 11.0056 6.00002 12.35ZM6.00002 13.6667C4.21113 12.1445 2.87502 10.7306 1.99169 9.42504C1.10835 8.11948 0.666687 6.91115 0.666687 5.80004C0.666687 4.13337 1.2028 2.8056 2.27502 1.81671C3.34724 0.827818 4.58891 0.333374 6.00002 0.333374C7.41113 0.333374 8.6528 0.827818 9.72502 1.81671C10.7972 2.8056 11.3334 4.13337 11.3334 5.80004C11.3334 6.91115 10.8917 8.11948 10.0084 9.42504C9.12502 10.7306 7.78891 12.1445 6.00002 13.6667Z" fill="#4A4A4A"/>
</svg>
