<svg width="22" height="21" viewBox="0 0 22 21" fill="none" xmlns="http://www.w3.org/2000/svg">
<path d="M1.65 16.6618V19.3421H20.35V16.6618H1.65ZM1.65 4.42105H5.0875C4.99583 4.25526 4.9225 4.04803 4.8675 3.79934C4.8125 3.55066 4.785 3.325 4.785 3.12237C4.785 2.25505 5.0875 1.51782 5.6925 0.910682C6.2975 0.303561 7.02167 0 7.865 0C8.42859 0 8.94989 0.142763 9.42892 0.428289C9.90798 0.713816 10.285 1.07763 10.56 1.51974L11.0138 2.23816L11.4675 1.51974C11.7608 1.05921 12.1368 0.690789 12.5954 0.414474C13.054 0.138158 13.5479 0 14.0771 0C14.959 0 15.7025 0.299342 16.3075 0.898026C16.9125 1.49671 17.215 2.24148 17.215 3.13234C17.215 3.32833 17.1921 3.52763 17.1462 3.73026C17.1004 3.93289 17.0317 4.16316 16.94 4.42105H20.35C20.79 4.42105 21.175 4.58684 21.505 4.91842C21.835 5.25 22 5.63684 22 6.07895V19.3421C22 19.7842 21.835 20.1711 21.505 20.5026C21.175 20.8342 20.79 21 20.35 21H1.65C1.21 21 0.825 20.8342 0.495 20.5026C0.165 20.1711 0 19.7842 0 19.3421V6.07895C0 5.63684 0.165 5.25 0.495 4.91842C0.825 4.58684 1.21 4.42105 1.65 4.42105ZM1.65 13.7053H20.35V6.07895H13.5025L16.2525 9.91974L14.9325 10.9145L11 5.44342L7.0675 10.9145L5.7475 9.91974L8.4975 6.07895H1.65V13.7053ZM7.8925 4.58684C8.29583 4.58684 8.63958 4.44408 8.92375 4.15855C9.20792 3.87303 9.35 3.52763 9.35 3.12237C9.35 2.71711 9.20792 2.37171 8.92375 2.08618C8.63958 1.80066 8.29583 1.65789 7.8925 1.65789C7.48917 1.65789 7.14542 1.80066 6.86125 2.08618C6.57708 2.37171 6.435 2.71711 6.435 3.12237C6.435 3.52763 6.57708 3.87303 6.86125 4.15855C7.14542 4.44408 7.48917 4.58684 7.8925 4.58684ZM14.08 4.58684C14.5007 4.58684 14.8534 4.44408 15.1381 4.15855C15.4227 3.87303 15.565 3.52763 15.565 3.12237C15.565 2.71711 15.4227 2.37171 15.1381 2.08618C14.8534 1.80066 14.5007 1.65789 14.08 1.65789C13.695 1.65789 13.3604 1.80066 13.0763 2.08618C12.7921 2.37171 12.65 2.71711 12.65 3.12237C12.65 3.52763 12.7921 3.87303 13.0763 4.15855C13.3604 4.44408 13.695 4.58684 14.08 4.58684Z" fill="black"/>
</svg>
