<svg width="22" height="22" viewBox="0 0 22 22" fill="none" xmlns="http://www.w3.org/2000/svg">
<path d="M1.65 17.3941V20.1921H20.35V17.3941H1.65ZM1.65 4.61534H5.0875C4.99583 4.44226 4.9225 4.22592 4.8675 3.96631C4.8125 3.70669 4.785 3.47112 4.785 3.25958C4.785 2.35415 5.0875 1.58452 5.6925 0.950702C6.2975 0.316901 7.02167 0 7.865 0C8.42859 0 8.94989 0.149037 9.42892 0.447111C9.90798 0.745185 10.285 1.12499 10.56 1.58652L11.0138 2.33651L11.4675 1.58652C11.7608 1.10576 12.1368 0.721146 12.5954 0.432688C13.054 0.144229 13.5479 0 14.0771 0C14.959 0 15.7025 0.312497 16.3075 0.93749C16.9125 1.56248 17.215 2.33999 17.215 3.27C17.215 3.47459 17.1921 3.68265 17.1462 3.89419C17.1004 4.10573 17.0317 4.34611 16.94 4.61534H20.35C20.79 4.61534 21.175 4.78841 21.505 5.13456C21.835 5.48071 22 5.88455 22 6.34609V20.1921C22 20.6536 21.835 21.0575 21.505 21.4036C21.175 21.7498 20.79 21.9229 20.35 21.9229H1.65C1.21 21.9229 0.825 21.7498 0.495 21.4036C0.165 21.0575 0 20.6536 0 20.1921V6.34609C0 5.88455 0.165 5.48071 0.495 5.13456C0.825 4.78841 1.21 4.61534 1.65 4.61534ZM1.65 14.3075H20.35V6.34609H13.5025L16.2525 10.3557L14.9325 11.3941L11 5.68263L7.0675 11.3941L5.7475 10.3557L8.4975 6.34609H1.65V14.3075ZM7.8925 4.78841C8.29583 4.78841 8.63958 4.63938 8.92375 4.3413C9.20792 4.04323 9.35 3.68265 9.35 3.25958C9.35 2.83651 9.20792 2.47594 8.92375 2.17786C8.63958 1.87979 8.29583 1.73075 7.8925 1.73075C7.48917 1.73075 7.14542 1.87979 6.86125 2.17786C6.57708 2.47594 6.435 2.83651 6.435 3.25958C6.435 3.68265 6.57708 4.04323 6.86125 4.3413C7.14542 4.63938 7.48917 4.78841 7.8925 4.78841ZM14.08 4.78841C14.5007 4.78841 14.8534 4.63938 15.1381 4.3413C15.4227 4.04323 15.565 3.68265 15.565 3.25958C15.565 2.83651 15.4227 2.47594 15.1381 2.17786C14.8534 1.87979 14.5007 1.73075 14.08 1.73075C13.695 1.73075 13.3604 1.87979 13.0763 2.17786C12.7921 2.47594 12.65 2.83651 12.65 3.25958C12.65 3.68265 12.7921 4.04323 13.0763 4.3413C13.3604 4.63938 13.695 4.78841 14.08 4.78841Z" fill="#13519A"/>
</svg>
