<svg xmlns="http://www.w3.org/2000/svg" width="16" height="16" viewBox="0 0 16 16" fill="none">
  <path d="M5.86491 11.6693C4.22574 11.6693 2.83847 11.1012 1.70308 9.96504C0.567694 8.82885 0 7.45207 0 5.83468C0 4.2173 0.568102 2.84051 1.70431 1.70431C2.84049 0.568102 4.2198 0 5.84223 0C7.46465 0 8.84144 0.568102 9.97259 1.70431C11.1038 2.84051 11.6693 4.21806 11.6693 5.83695C11.6693 6.49045 11.5635 7.117 11.3519 7.71659C11.1403 8.31617 10.8329 8.8679 10.4298 9.37176L15.7808 14.6925C15.9269 14.8341 16 15.0144 16 15.2333C16 15.4522 15.9269 15.6347 15.7808 15.7808C15.6347 15.9269 15.4522 16 15.2333 16C15.0144 16 14.8341 15.9269 14.6925 15.7808L9.35664 10.445C8.90317 10.8279 8.37684 11.1277 7.77765 11.3443C7.17848 11.561 6.5409 11.6693 5.86491 11.6693ZM5.84978 10.1578C7.04645 10.1578 8.06361 9.7358 8.90126 8.89183C9.73893 8.04788 10.1578 7.02883 10.1578 5.83468C10.1578 4.64053 9.73893 3.62147 8.90126 2.77751C8.06361 1.93356 7.04645 1.51158 5.84978 1.51158C4.64473 1.51158 3.62043 1.93356 2.77688 2.77751C1.93333 3.62147 1.51156 4.64053 1.51156 5.83468C1.51156 7.02883 1.93333 8.04788 2.77688 8.89183C3.62043 9.7358 4.64473 10.1578 5.84978 10.1578Z" fill="white"/>
</svg>