<svg width="152" height="34" viewBox="0 0 152 34" fill="none" xmlns="http://www.w3.org/2000/svg">
<g clip-path="url(#clip0_964_626)">
<path d="M0.770267 29.6912L3.12535 24.3895C5.75489 26.34 9.78332 27.7407 13.5815 27.7407C18.0615 27.7407 19.9208 26.1981 19.9208 24.159C19.9208 17.9885 1.39888 22.1642 1.39888 10.3728C1.40773 5.07112 5.66635 0.629395 14.6263 0.629395C18.5662 0.629395 22.5946 1.57803 25.5429 3.3955L23.3206 8.75039C20.4254 7.07477 17.3444 6.25912 14.582 6.25912C10.102 6.25912 8.33131 7.97907 8.33131 10.0714C8.33131 16.1444 26.8532 11.9775 26.8532 23.6714C26.8532 28.9287 22.5061 33.3793 13.5815 33.3793C8.55265 33.3793 3.53262 31.881 0.761414 29.7089L0.770267 29.6912Z" stroke="#114D91" stroke-width="1.42"/>
<path d="M38.6286 32.8652V6.88869H28.3938V1.12598H55.8402V6.88869H45.6053V32.8741H38.6286V32.8652Z" stroke="#114D91" stroke-width="1.42"/>
<path d="M62.808 32.8652H55.6542L69.7759 1.12598H76.7083L90.883 32.8652H83.5965L73.2288 8.05896L62.8169 32.8652H62.808Z" stroke="#114D91" stroke-width="1.42"/>
<path d="M122.26 32.8652H114.699L108.493 23.9286H101.384V32.8652H94.4068V18.3077H107.581C112.203 18.3077 114.602 16.18 114.602 12.5982C114.602 9.01646 112.203 6.88869 107.581 6.88869H94.4068V1.12598H107.944C116.408 1.12598 121.667 5.47904 121.667 12.5982C121.667 17.3591 119.268 20.8522 115.098 22.6165L122.252 32.8652H122.26Z" stroke="#114D91" stroke-width="1.42"/>
<path d="M134.16 32.8652V6.88869H123.925V1.12598H151.371V6.88869H141.137V32.8741H134.16V32.8652Z" stroke="#114D91" stroke-width="1.42"/>
</g>
<defs>
<clipPath id="clip0_964_626">
<rect width="152" height="34" fill="white"/>
</clipPath>
</defs>
</svg>
