<svg width="42" height="48" viewBox="0 0 42 48" fill="none" xmlns="http://www.w3.org/2000/svg">
<g clip-path="url(#clip0_836_1887)">
<path d="M28.3316 15.3881C28.3316 14.7887 28.8058 14.2803 29.4177 14.25L40.7916 13.6581C41.4265 13.6278 41.9619 14.1058 42.0001 14.7356C42.0154 15.3653 41.5488 15.8965 40.914 15.9344L29.5401 16.5263C28.9052 16.5566 28.3698 16.0786 28.3316 15.4488C28.3316 15.426 28.3316 15.4109 28.3316 15.3881Z" fill="#13519A"/>
<path d="M28.1326 11.632C28.1326 11.3512 28.232 11.0781 28.4385 10.858L31.2304 7.89124C31.6664 7.42839 32.3854 7.40562 32.8519 7.83812C33.3185 8.27062 33.3415 8.99146 32.9055 9.44672L30.1136 12.4135C29.6776 12.8764 28.9587 12.8991 28.4921 12.4666C28.2473 12.239 28.1249 11.9355 28.1249 11.632L28.1326 11.632Z" fill="#13519A"/>
<path d="M22.9238 3.28534C22.9238 2.55692 22.9315 1.8285 22.9544 1.10766C22.9697 0.47788 23.4975 -0.0153228 24.1323 -0.000147352C24.7672 0.0150281 25.2797 0.561345 25.2491 1.16836C25.1573 4.47662 25.2873 7.81522 25.6392 11.1083C25.708 11.7305 25.2491 12.292 24.6219 12.3603C23.9946 12.4286 23.4286 11.9733 23.3598 11.3511C23.0691 8.68022 22.9315 5.9714 22.9315 3.28534L22.9238 3.28534Z" fill="#13519A"/>
<path d="M17.3706 10.2282C17.3706 9.95504 17.4701 9.68188 17.6689 9.46183C18.0973 8.99898 18.8239 8.96863 19.2905 9.39354L22.3118 12.1327C22.7784 12.5576 22.809 13.2785 22.3807 13.7413C21.9523 14.2042 21.2257 14.2345 20.7591 13.8096L17.7378 11.0704C17.493 10.8428 17.363 10.5393 17.363 10.2282L17.3706 10.2282Z" fill="#13519A"/>
<path d="M8.1766 15.9799C8.1766 15.3805 8.65083 14.8721 9.26274 14.8417L20.6366 14.2499C21.2715 14.2196 21.8069 14.6976 21.8451 15.3274C21.8681 15.9647 21.3939 16.4883 20.759 16.5262L9.38512 17.1181C8.75027 17.1484 8.21484 16.6704 8.1766 16.0406C8.1766 16.0178 8.1766 16.0027 8.1766 15.9799Z" fill="#13519A"/>
<path d="M16.9575 22.1183C16.9575 21.8376 17.057 21.5644 17.2635 21.3444L20.0553 18.3776C20.4913 17.9147 21.2103 17.892 21.6769 18.3245C22.1435 18.757 22.1664 19.4778 21.7304 19.9331L18.9386 22.8999C18.5102 23.3627 17.7836 23.3855 17.317 22.953C17.0723 22.7329 16.9499 22.4218 16.9499 22.1183L16.9575 22.1183Z" fill="#13519A"/>
<path d="M24.5376 19.546C24.5376 18.9694 24.9736 18.4762 25.5626 18.4155C26.1898 18.3472 26.7558 18.8024 26.8247 19.4246C27.1918 22.8164 27.3218 26.2688 27.2224 29.6757C27.2071 30.3055 26.6793 30.7987 26.0445 30.7835C25.4096 30.7683 24.9048 30.222 24.9277 29.615C25.0195 26.3067 24.8971 22.9605 24.5376 19.675C24.5376 19.6371 24.5376 19.5916 24.5376 19.5536L24.5376 19.546Z" fill="#13519A"/>
<path d="M27.4978 17.8083C27.4978 17.5351 27.5973 17.262 27.7961 17.0419C28.2245 16.5791 28.9511 16.5487 29.4177 16.9736L32.439 19.7128C32.9056 20.1377 32.9362 20.8585 32.5078 21.3214C32.0795 21.7842 31.3529 21.8146 30.8863 21.3897L27.865 18.6505C27.6202 18.4229 27.4902 18.1194 27.4902 17.8083L27.4978 17.8083Z" fill="#13519A"/>
<path d="M10.3641 39.2743C10.3642 38.7052 10.7925 38.2196 11.3738 38.1437C12.9036 37.9616 14.4563 37.9237 15.9861 38.0299C16.6209 38.0754 17.1105 38.6293 17.0493 39.2439C17.0034 39.8737 16.4603 40.3442 15.8254 40.2986C14.4334 40.2 13.0336 40.2379 11.6492 40.4049C11.022 40.4807 10.4483 40.0331 10.3718 39.4109C10.3718 39.3653 10.3641 39.3198 10.3641 39.2743Z" fill="#13519A"/>
<path d="M7.38112 36.3682L7.38112 33.0068C7.38112 32.377 7.89359 31.8687 8.52845 31.8687C9.16331 31.8687 9.67578 32.377 9.67578 33.0068L9.67578 36.3682C9.67578 36.998 9.16331 37.5063 8.52845 37.5063C7.89359 37.5063 7.38112 36.998 7.38112 36.3682Z" fill="#13519A"/>
<path d="M-0.000120218 39.5476C-0.000120217 39.5096 -0.000120215 39.4641 -0.000120213 39.4262C0.0687198 38.804 0.634737 38.3487 1.26195 38.417C2.35574 38.5308 4.34444 38.4777 5.43058 38.2956C6.05779 38.1894 6.64675 38.6143 6.75384 39.2289C6.86092 39.8511 6.43259 40.4353 5.81303 40.5416C4.52037 40.754 2.32514 40.8223 1.01718 40.6781C0.428215 40.6174 -0.00776776 40.1242 -0.00776773 39.5476L-0.000120218 39.5476Z" fill="#13519A"/>
<path d="M7.38112 46.8621L7.38112 42.9013C7.38112 42.2716 7.89359 41.7632 8.52845 41.7632C9.16331 41.7632 9.67578 42.2716 9.67578 42.9013L9.67578 46.8621C9.67578 47.4919 9.16331 48.0003 8.52845 48.0003C7.89359 48.0003 7.38112 47.4919 7.38112 46.8621Z" fill="#13519A"/>
</g>
<defs>
<clipPath id="clip0_836_1887">
<rect width="48" height="42" fill="white" transform="translate(42) rotate(90)"/>
</clipPath>
</defs>
</svg>
