<svg width="48" height="42" viewBox="0 0 48 42" fill="none" xmlns="http://www.w3.org/2000/svg">
<g clip-path="url(#clip0_836_1872)">
<path d="M15.3879 13.6684C14.7884 13.6684 14.2801 13.1942 14.2497 12.5823L13.6579 1.2084C13.6275 0.573543 14.1055 0.0381216 14.7353 -0.000122785C15.3651 -0.0154205 15.8962 0.451161 15.9342 1.08602L16.526 12.4599C16.5564 13.0948 16.0784 13.6302 15.4486 13.6684C15.4258 13.6684 15.4106 13.6684 15.3879 13.6684Z" fill="#13519A"/>
<path d="M11.632 13.8674C11.3512 13.8674 11.0781 13.768 10.858 13.5615L7.89124 10.7696C7.42839 10.3336 7.40562 9.61465 7.83812 9.14807C8.27062 8.68149 8.99146 8.65854 9.44672 9.09453L12.4135 11.8864C12.8764 12.3224 12.8991 13.0413 12.4666 13.5079C12.239 13.7527 11.9355 13.8751 11.632 13.8751V13.8674Z" fill="#13519A"/>
<path d="M3.28534 19.0762C2.55692 19.0762 1.8285 19.0685 1.10766 19.0456C0.47788 19.0303 -0.0153228 18.5025 -0.000147286 17.8677C0.0150282 17.2328 0.561345 16.7203 1.16836 16.7509C4.47662 16.8427 7.81522 16.7127 11.1083 16.3608C11.7305 16.292 12.292 16.7509 12.3603 17.3781C12.4286 18.0054 11.9733 18.5714 11.3511 18.6402C8.68022 18.9309 5.9714 19.0685 3.28534 19.0685V19.0762Z" fill="#13519A"/>
<path d="M10.2282 24.6296C9.95504 24.6296 9.68188 24.5302 9.46183 24.3313C8.99898 23.903 8.96863 23.1763 9.39354 22.7097L12.1327 19.6884C12.5576 19.2219 13.2785 19.1913 13.7413 19.6196C14.2042 20.0479 14.2345 20.7746 13.8096 21.2412L11.0704 24.2625C10.8428 24.5072 10.5393 24.6373 10.2282 24.6373V24.6296Z" fill="#13519A"/>
<path d="M15.9797 33.8232C15.3802 33.8232 14.8719 33.3489 14.8415 32.737L14.2497 21.3631C14.2193 20.7283 14.6973 20.1929 15.3271 20.1546C15.9645 20.1317 16.488 20.6059 16.526 21.2407L17.1178 32.6146C17.1482 33.2495 16.6701 33.7849 16.0404 33.8232C16.0176 33.8232 16.0024 33.8232 15.9797 33.8232Z" fill="#13519A"/>
<path d="M22.1183 25.0422C21.8376 25.0422 21.5644 24.9428 21.3444 24.7363L18.3776 21.9444C17.9147 21.5084 17.892 20.7895 18.3245 20.3229C18.757 19.8563 19.4778 19.8333 19.9331 20.2693L22.8999 23.0612C23.3627 23.4895 23.3855 24.2162 22.953 24.6827C22.7329 24.9275 22.4218 25.0499 22.1183 25.0499V25.0422Z" fill="#13519A"/>
<path d="M19.546 17.4626C18.9694 17.4626 18.4762 17.0266 18.4155 16.4377C18.3472 15.8104 18.8024 15.2444 19.4246 15.1756C22.8164 14.8084 26.2688 14.6784 29.6757 14.7778C30.3055 14.7931 30.7987 15.3209 30.7835 15.9558C30.7683 16.5906 30.222 17.0955 29.615 17.0725C26.3067 16.9807 22.9605 17.1031 19.675 17.4626C19.6371 17.4626 19.5916 17.4626 19.5536 17.4626H19.546Z" fill="#13519A"/>
<path d="M17.8083 14.5022C17.5351 14.5022 17.262 14.4027 17.0419 14.2039C16.5791 13.7755 16.5487 13.0489 16.9736 12.5823L19.7128 9.56099C20.1377 9.09441 20.8585 9.06381 21.3214 9.49215C21.7842 9.92049 21.8146 10.6471 21.3897 11.1137L18.6505 14.135C18.4229 14.3798 18.1194 14.5098 17.8083 14.5098V14.5022Z" fill="#13519A"/>
<path d="M39.274 31.6356C38.705 31.6356 38.2193 31.2073 38.1435 30.626C37.9614 29.0962 37.9234 27.5435 38.0297 26.0137C38.0752 25.3788 38.6291 24.8893 39.2437 24.9505C39.8735 24.9964 40.3439 25.5394 40.2984 26.1743C40.1997 27.5664 40.2377 28.9661 40.4046 30.3506C40.4805 30.9778 40.0328 31.5515 39.4106 31.628C39.3651 31.628 39.3196 31.6356 39.274 31.6356Z" fill="#13519A"/>
<path d="M36.3679 34.6189H33.0066C32.3768 34.6189 31.8684 34.1064 31.8684 33.4716C31.8684 32.8367 32.3768 32.3242 33.0066 32.3242H36.3679C36.9977 32.3242 37.5061 32.8367 37.5061 33.4716C37.5061 34.1064 36.9977 34.6189 36.3679 34.6189Z" fill="#13519A"/>
<path d="M39.5471 41.9999C39.5091 41.9999 39.4636 41.9999 39.4257 41.9999C38.8035 41.931 38.3482 41.365 38.4165 40.7378C38.5303 39.644 38.4772 37.6553 38.2951 36.5692C38.1889 35.942 38.6138 35.353 39.2284 35.2459C39.8506 35.1388 40.4348 35.5672 40.5411 36.1867C40.7535 37.4794 40.8218 39.6746 40.6776 40.9826C40.6169 41.5715 40.1237 42.0075 39.5471 42.0075V41.9999Z" fill="#13519A"/>
<path d="M46.8616 34.6189H42.9009C42.2711 34.6189 41.7627 34.1064 41.7627 33.4716C41.7627 32.8367 42.2711 32.3242 42.9009 32.3242H46.8616C47.4914 32.3242 47.9998 32.8367 47.9998 33.4716C47.9998 34.1064 47.4914 34.6189 46.8616 34.6189Z" fill="#13519A"/>
</g>
<defs>
<clipPath id="clip0_836_1872">
<rect width="48" height="42" fill="white"/>
</clipPath>
</defs>
</svg>
